<svg width="87" height="63" viewBox="0 0 87 63" fill="none" xmlns="http://www.w3.org/2000/svg">
<path d="M2.96 41.48C3.92 41.32 4.56 40.92 5.56 39.76C7.8 37.16 13.24 28.92 16.64 23.52C18.6 23.32 20.96 23.08 23.32 22.88C23.76 22.84 23.92 22.68 23.92 22.52C23.92 22.28 23.56 22 23.04 21.68C22.68 21.44 22.32 21.2 19.68 21.2H18.08C19.28 19.24 20.32 17.68 21.24 16.44C21.48 16.92 21.68 17.16 21.92 17.24C22.36 17.4 22.68 17.32 22.96 17.36C23.48 17.48 24.28 17.36 24.68 16.76C25.64 15 26.4 12.64 26.64 10.88C26.76 10.12 26.6 9.4 26.08 9.08C25.52 8.72 24.36 8.4 23.48 8.4C22.96 8.4 22.44 8.6 21.64 9.36C18.88 12.04 15.84 15.84 11.92 21.48C10.52 21.6 9.36 21.72 8.52 21.88C8.2 21.96 8.08 22.04 8.08 22.16C8.08 22.28 8.48 23.04 9.04 23.6C9.4 23.96 9.56 24.08 10.12 24.12C9.24 25.44 8.28 26.88 7.28 28.44C4.6 32.56 1.68 38.04 0.72 40.56C0.4 41.44 0.64 41.84 1.28 41.84C1.84 41.84 2.36 41.6 2.96 41.48ZM18.8706 36.56C19.3106 36.56 19.6706 36.24 21.2706 33.84C25.1106 28 29.9106 23.4 33.9506 20.88C34.0706 20.8 34.1506 20.72 34.1506 20.64C34.1506 20.56 33.9106 20.4 33.7906 20.28C33.5106 20.04 33.4306 19.84 33.1106 19.84C32.7906 19.84 32.2306 20.04 31.3506 20.48C29.5506 21.32 27.5106 22.72 25.2306 24.8C25.3906 24.24 25.4706 23.72 25.4706 23.28C25.4706 22.72 25.3106 22.24 24.8306 21.96C24.2706 21.64 23.7906 21.6 23.1106 21.36C22.8706 21.28 22.5506 21.28 22.4306 21.56C21.8306 22.72 19.2306 26.4 17.6706 28.44C15.6706 31.04 14.9106 32.92 14.9106 34.08C14.9106 35.4 15.9506 35.76 17.1506 36.08C18.2706 36.4 18.5906 36.56 18.8706 36.56ZM34.2784 37.36C38.3184 37.36 43.3984 33.68 46.1584 29.08L46.2784 28.88C46.4384 28.6 46.4784 28.4 46.1984 28.12L46.0784 28C45.9584 27.88 45.8784 27.92 45.5984 28.28L45.4784 28.44C42.6784 32.16 38.3184 34.6 35.3184 34.6C34.7984 34.6 34.3584 34.52 33.9984 34.32C33.8384 33.92 33.8784 33.4 33.9984 32.76C36.8384 31.8 38.9984 30.84 40.3984 29.96C43.0784 28.24 43.7984 27.08 43.7984 25.88C43.7984 25.04 43.1984 24.12 42.4384 23.52C42.0784 23 41.7584 22.8 41.1584 22.4C40.5584 22 39.9184 21.72 39.1184 21.72C36.5184 21.72 32.8784 24 30.7984 26.72C27.8784 30.56 28.3984 33.12 29.7984 34.76C31.5184 36.8 32.7584 37.36 34.2784 37.36ZM39.2784 28.4C38.1984 29.2 36.5584 30.04 34.7584 30.8C36.1584 28.04 39.1184 25.08 41.3184 24.6C41.7184 26 40.7584 27.32 39.2784 28.4ZM49.1631 37C51.7231 37 54.7631 35.76 56.9631 33.92C57.5631 33.36 57.8831 32.84 58.1631 31.92C58.2431 31.6 58.1231 31.44 57.8431 31.64C54.5631 33.76 52.3631 34.4 50.3631 34.4C49.7631 34.4 49.1631 34.32 48.6831 34.16C48.6431 33.68 48.6831 33.2 48.7631 32.68C51.4431 31.88 53.7631 30.88 55.2431 29.96C57.8031 28.36 58.6431 27.12 58.6431 26.16C58.6431 25.24 58.1231 24.52 57.2431 23.76C56.1231 22.08 55.2831 21.72 54.2031 21.72C51.4831 21.72 47.5631 24.12 45.3231 27.08C43.6031 29.4 43.0431 31.84 43.6431 33.2C44.2431 34.6 45.4431 35.88 46.6431 36.48C47.3231 36.84 48.1231 37 49.1631 37ZM53.9631 28.36C53.0031 29.12 51.2431 30.04 49.4831 30.76C50.8431 28 53.7231 25.48 56.2031 24.88C56.2831 26.04 55.7231 27.08 53.9631 28.36Z" fill="#F3BC10"/>
<path d="M11.5459 58.2C10.7326 58.2 9.93927 58.0667 9.16594 57.8C8.3926 57.5333 7.72594 57.1467 7.16594 56.64L7.78594 55.72C8.3726 56.2 8.96594 56.56 9.56594 56.8C10.1793 57.04 10.8326 57.16 11.5259 57.16C12.3659 57.16 13.0326 56.9933 13.5259 56.66C14.0326 56.3133 14.2859 55.8267 14.2859 55.2C14.2859 54.9067 14.2193 54.6667 14.0859 54.48C13.9526 54.28 13.7526 54.1067 13.4859 53.96C13.2326 53.8133 12.9059 53.6867 12.5059 53.58C12.1193 53.46 11.6659 53.34 11.1459 53.22C10.5459 53.0733 10.0259 52.9267 9.58594 52.78C9.14594 52.6333 8.77927 52.4667 8.48594 52.28C8.20594 52.0933 7.9926 51.8667 7.84594 51.6C7.7126 51.32 7.64594 50.9733 7.64594 50.56C7.64594 50.04 7.74594 49.58 7.94594 49.18C8.15927 48.78 8.43927 48.4533 8.78594 48.2C9.14594 47.9333 9.55927 47.7333 10.0259 47.6C10.5059 47.4667 11.0126 47.4 11.5459 47.4C12.3459 47.4 13.0726 47.5333 13.7259 47.8C14.3793 48.0533 14.9059 48.3933 15.3059 48.82L14.6459 49.62C14.2593 49.22 13.7859 48.92 13.2259 48.72C12.6793 48.52 12.1059 48.42 11.5059 48.42C11.1459 48.42 10.8126 48.46 10.5059 48.54C10.1993 48.6067 9.92594 48.72 9.68594 48.88C9.45927 49.04 9.27927 49.2467 9.14594 49.5C9.0126 49.74 8.94594 50.0267 8.94594 50.36C8.94594 50.64 8.9926 50.8667 9.08594 51.04C9.17927 51.2133 9.3326 51.3667 9.54594 51.5C9.75927 51.62 10.0259 51.7333 10.3459 51.84C10.6793 51.9333 11.0793 52.0333 11.5459 52.14C12.2126 52.3 12.7993 52.46 13.3059 52.62C13.8126 52.78 14.2326 52.9667 14.5659 53.18C14.9126 53.3933 15.1726 53.6533 15.3459 53.96C15.5193 54.2667 15.6059 54.64 15.6059 55.08C15.6059 56.04 15.2393 56.8 14.5059 57.36C13.7726 57.92 12.7859 58.2 11.5459 58.2ZM26.592 58H25.232V52.18C25.232 50.9933 25.0254 50.1067 24.612 49.52C24.212 48.9333 23.6187 48.64 22.832 48.64C22.4454 48.64 22.0587 48.72 21.672 48.88C21.2987 49.0267 20.9454 49.2333 20.612 49.5C20.2787 49.7667 19.9854 50.08 19.732 50.44C19.492 50.8 19.312 51.1933 19.192 51.62V58H17.832V43.4H19.192V49.94C19.6054 49.1533 20.1787 48.5333 20.912 48.08C21.6454 47.6267 22.4387 47.4 23.292 47.4C23.892 47.4 24.3987 47.5133 24.812 47.74C25.2254 47.9533 25.5654 48.26 25.832 48.66C26.0987 49.0467 26.292 49.52 26.412 50.08C26.532 50.6267 26.592 51.2333 26.592 51.9V58ZM29.4922 58V47.58H30.8522V58H29.4922ZM29.4922 45.4V43.4H30.8522V45.4H29.4922ZM39.1677 58.2C38.2877 58.2 37.5077 57.98 36.8277 57.54C36.161 57.0867 35.621 56.52 35.2077 55.84V62.26H33.8477V47.58H35.0677V49.6C35.4943 48.9467 36.0477 48.42 36.7277 48.02C37.4077 47.6067 38.1477 47.4 38.9477 47.4C39.6677 47.4 40.3277 47.5533 40.9277 47.86C41.5277 48.1533 42.0477 48.5533 42.4877 49.06C42.9277 49.5533 43.2677 50.1267 43.5077 50.78C43.761 51.4333 43.8877 52.1067 43.8877 52.8C43.8877 53.5333 43.7743 54.2267 43.5477 54.88C43.321 55.5333 42.9943 56.1067 42.5677 56.6C42.1543 57.0933 41.6543 57.4867 41.0677 57.78C40.4943 58.06 39.861 58.2 39.1677 58.2ZM38.7877 57C39.3477 57 39.8543 56.88 40.3077 56.64C40.7743 56.4 41.1677 56.0867 41.4877 55.7C41.821 55.3 42.0743 54.8533 42.2477 54.36C42.421 53.8533 42.5077 53.3333 42.5077 52.8C42.5077 52.24 42.4077 51.7067 42.2077 51.2C42.0077 50.6933 41.7343 50.2467 41.3877 49.86C41.041 49.4733 40.6277 49.1667 40.1477 48.94C39.681 48.7133 39.1743 48.6 38.6277 48.6C38.281 48.6 37.9143 48.6733 37.5277 48.82C37.1543 48.9533 36.801 49.14 36.4677 49.38C36.1477 49.6067 35.8677 49.88 35.6277 50.2C35.401 50.5067 35.261 50.8333 35.2077 51.18V54.38C35.3677 54.7533 35.5677 55.1 35.8077 55.42C36.061 55.74 36.341 56.02 36.6477 56.26C36.9677 56.4867 37.3077 56.6667 37.6677 56.8C38.0277 56.9333 38.401 57 38.7877 57ZM51.5114 58.2C50.6314 58.2 49.8514 57.98 49.1714 57.54C48.5047 57.0867 47.9647 56.52 47.5514 55.84V62.26H46.1914V47.58H47.4114V49.6C47.8381 48.9467 48.3914 48.42 49.0714 48.02C49.7514 47.6067 50.4914 47.4 51.2914 47.4C52.0114 47.4 52.6714 47.5533 53.2714 47.86C53.8714 48.1533 54.3914 48.5533 54.8314 49.06C55.2714 49.5533 55.6114 50.1267 55.8514 50.78C56.1047 51.4333 56.2314 52.1067 56.2314 52.8C56.2314 53.5333 56.1181 54.2267 55.8914 54.88C55.6647 55.5333 55.3381 56.1067 54.9114 56.6C54.4981 57.0933 53.9981 57.4867 53.4114 57.78C52.8381 58.06 52.2047 58.2 51.5114 58.2ZM51.1314 57C51.6914 57 52.1981 56.88 52.6514 56.64C53.1181 56.4 53.5114 56.0867 53.8314 55.7C54.1647 55.3 54.4181 54.8533 54.5914 54.36C54.7647 53.8533 54.8514 53.3333 54.8514 52.8C54.8514 52.24 54.7514 51.7067 54.5514 51.2C54.3514 50.6933 54.0781 50.2467 53.7314 49.86C53.3847 49.4733 52.9714 49.1667 52.4914 48.94C52.0247 48.7133 51.5181 48.6 50.9714 48.6C50.6247 48.6 50.2581 48.6733 49.8714 48.82C49.4981 48.9533 49.1447 49.14 48.8114 49.38C48.4914 49.6067 48.2114 49.88 47.9714 50.2C47.7447 50.5067 47.6047 50.8333 47.5514 51.18V54.38C47.7114 54.7533 47.9114 55.1 48.1514 55.42C48.4047 55.74 48.6847 56.02 48.9914 56.26C49.3114 56.4867 49.6514 56.6667 50.0114 56.8C50.3714 56.9333 50.7447 57 51.1314 57ZM58.5352 58V47.58H59.8952V58H58.5352ZM58.5352 45.4V43.4H59.8952V45.4H58.5352ZM71.6506 58H70.2906V52.18C70.2906 50.94 70.104 50.04 69.7306 49.48C69.3706 48.92 68.8106 48.64 68.0506 48.64C67.6506 48.64 67.2506 48.7133 66.8506 48.86C66.4506 49.0067 66.0773 49.2133 65.7306 49.48C65.3973 49.7467 65.0973 50.0667 64.8306 50.44C64.564 50.8 64.3706 51.1933 64.2506 51.62V58H62.8906V47.58H64.1306V49.94C64.5573 49.18 65.164 48.5667 65.9506 48.1C66.7506 47.6333 67.6173 47.4 68.5506 47.4C69.124 47.4 69.6106 47.5067 70.0106 47.72C70.4106 47.9333 70.7306 48.2333 70.9706 48.62C71.2106 49.0067 71.384 49.48 71.4906 50.04C71.5973 50.6 71.6506 51.22 71.6506 51.9V58ZM78.7308 58.14C78.0108 58.14 77.3508 57.9933 76.7508 57.7C76.1641 57.3933 75.6508 56.9933 75.2108 56.5C74.7841 56.0067 74.4508 55.44 74.2108 54.8C73.9708 54.16 73.8508 53.5 73.8508 52.82C73.8508 52.1 73.9641 51.4133 74.1908 50.76C74.4308 50.0933 74.7641 49.5133 75.1908 49.02C75.6174 48.5267 76.1241 48.1333 76.7108 47.84C77.3108 47.5467 77.9708 47.4 78.6908 47.4C79.5841 47.4 80.3574 47.6267 81.0108 48.08C81.6641 48.52 82.2241 49.08 82.6908 49.76V47.58H83.9108V58.04C83.9108 58.76 83.7708 59.3933 83.4908 59.94C83.2241 60.5 82.8574 60.9667 82.3908 61.34C81.9374 61.7133 81.3974 61.9933 80.7708 62.18C80.1574 62.3667 79.5041 62.46 78.8108 62.46C77.6108 62.46 76.6441 62.2467 75.9108 61.82C75.1774 61.3933 74.5841 60.82 74.1308 60.1L74.9708 59.44C75.3841 60.1067 75.9308 60.5933 76.6108 60.9C77.2908 61.22 78.0241 61.38 78.8108 61.38C79.3174 61.38 79.7974 61.3067 80.2508 61.16C80.7041 61.0267 81.0974 60.82 81.4308 60.54C81.7774 60.2733 82.0508 59.9267 82.2508 59.5C82.4508 59.0867 82.5508 58.6 82.5508 58.04V55.98C82.1508 56.6467 81.6041 57.1733 80.9108 57.56C80.2174 57.9467 79.4908 58.14 78.7308 58.14ZM79.1108 57C79.5108 57 79.9041 56.9267 80.2908 56.78C80.6774 56.6333 81.0241 56.44 81.3308 56.2C81.6508 55.9467 81.9174 55.6667 82.1308 55.36C82.3441 55.0533 82.4841 54.74 82.5508 54.42V51.2C82.4041 50.8267 82.2041 50.48 81.9508 50.16C81.6974 49.84 81.4108 49.5667 81.0908 49.34C80.7708 49.1133 80.4241 48.9333 80.0508 48.8C79.6908 48.6667 79.3241 48.6 78.9508 48.6C78.3641 48.6 77.8374 48.7267 77.3708 48.98C76.9174 49.22 76.5308 49.54 76.2108 49.94C75.8908 50.34 75.6441 50.7933 75.4708 51.3C75.3108 51.8067 75.2308 52.32 75.2308 52.84C75.2308 53.4 75.3308 53.9333 75.5308 54.44C75.7308 54.9467 76.0041 55.3933 76.3508 55.78C76.7108 56.1533 77.1241 56.4533 77.5908 56.68C78.0574 56.8933 78.5641 57 79.1108 57Z" fill="#EBAE16"/>
</svg>
