<svg width="123" height="56" viewBox="0 0 123 56" fill="none" xmlns="http://www.w3.org/2000/svg">
<path d="M42.9588 50.4315C43.1518 50.2245 43.4742 49.9207 43.5958 49.795C43.974 49.352 44.1939 49.0135 44.2373 48.1323C44.3804 44.957 44.6026 41.7296 44.9873 38.6449L45.6999 38.1744C46.283 37.8008 46.3254 37.7273 46.2944 37.6114C46.2556 37.4665 46.1143 37.2869 45.6366 37.0112C45.4897 36.9263 45.3504 36.8704 45.219 36.8435C45.5945 34.0719 46.0879 31.3929 46.688 28.9959C46.988 27.7974 46.5465 27.0772 45.2653 27.0478C44.2391 27.0432 43.1798 26.7991 42.6872 26.931C41.9917 27.1174 41.5131 27.6494 40.1104 29.485C37.8183 32.5217 32.0059 42.5891 30.0601 47.6139C29.224 49.8257 29.4746 50.8767 30.9479 51.5068C31.9746 51.9771 32.8869 52.1364 33.1477 52.0665C33.3795 52.0044 33.3831 51.786 33.3924 51.473C33.3773 50.1415 33.7699 48.825 34.9899 46.0756C36.9184 44.3476 39.4476 42.4275 42.2744 40.4588C42.1722 43.9026 42.2538 47.4525 42.52 50.3006C42.5552 50.6639 42.816 50.594 42.9588 50.4315ZM37.2953 41.2339C39.2329 37.4536 41.3139 33.9766 42.9536 31.5184C42.6795 33.3932 42.4929 35.7105 42.3528 38.2016C40.6303 39.1912 38.9155 40.2097 37.2953 41.2339ZM50.7361 45.6766C51.3346 43.6217 52.0398 41.8487 52.6849 39.9677C53.7109 38.233 54.7333 36.7167 55.511 35.794C55.4769 36.3622 55.2632 37.0717 54.8664 38.1408C54.2057 39.9639 53.5953 41.7425 53.3708 43.1071C53.2539 43.9459 53.4905 44.5969 54.6713 44.7153C55.4077 44.7975 55.7751 45.0097 56.2098 44.8932C56.6445 44.7767 56.8178 44.2644 57.4495 42.4491C58.1639 40.3631 58.8541 38.9979 59.5604 38.1564C59.3819 39.2292 59.2812 40.5917 59.3247 41.4497C59.4205 42.3868 59.6317 42.8271 60.6408 43.1158C61.1453 43.2601 61.8796 43.2187 62.4012 43.0789C64.3137 42.5665 66.1133 39.6617 67.1236 36.1299L67.1717 35.9617C67.2332 35.7278 67.2234 35.5752 66.9662 35.4267L66.856 35.363C66.7458 35.2994 66.6956 35.3439 66.5626 35.659L66.5067 35.7982C65.2081 39.0657 64.2784 40.464 62.8626 41.0918C63.1651 38.7435 64.3375 36.6279 64.0207 35.0978C63.9177 34.5974 63.4825 34.2482 62.8832 34.0981C62.5179 34.0097 62.1391 33.987 61.6465 34.1189C61.0669 34.2742 60.6307 34.7328 58.9755 37.1329C59.0945 36.4178 59.1633 35.7471 59.1762 35.2157C59.1616 34.35 58.8423 33.9696 58.154 33.7192C57.4 33.4554 56.9923 33.4404 56.4997 33.5724C55.9201 33.7277 54.8428 34.5754 53.5498 36.0089C53.5233 34.8669 53.0032 34.6646 51.4378 34.6182C50.8117 34.5996 50.5043 34.4956 50.3015 34.5499C50.0986 34.6043 50.0003 34.817 49.9253 35.1166C49.7562 35.8763 49.1783 37.4287 47.8161 40.8064C46.8662 43.1729 46.4141 44.8469 46.7996 45.7064C47.2085 46.6528 48.7356 47.0201 49.6381 47.0268C50.0748 47.034 50.5089 46.4518 50.7361 45.6766ZM70.8326 41.5651C73.7594 40.7809 76.7252 37.1288 77.8318 33.2606L77.8799 33.0925C77.9414 32.8586 77.9316 32.7059 77.6744 32.5574L77.5642 32.4938C77.4539 32.4301 77.4038 32.4746 77.2708 32.7898L77.2149 32.929C75.9086 36.1674 73.2236 38.7814 71.0503 39.3638C70.6736 39.4647 70.3393 39.4922 70.0397 39.4172C69.8461 39.1584 69.7742 38.774 69.7369 38.287C71.6079 37.0403 72.9864 35.9255 73.8298 35.0163C75.4374 33.25 75.7339 32.2699 75.5009 31.4005C75.3379 30.792 74.7246 30.242 74.0576 29.9548C73.6958 29.648 73.4252 29.5652 72.9129 29.3919C72.4006 29.2186 71.8826 29.14 71.303 29.2953C69.4194 29.8 67.225 32.1583 66.2462 34.5325C64.8762 37.8812 65.7499 39.6349 67.0824 40.5512C68.7245 41.6952 69.7315 41.8602 70.8326 41.5651ZM72.7156 34.1035C72.0885 34.8927 71.0635 35.8196 69.907 36.7196C70.3854 34.4484 71.9552 31.7294 73.4558 30.9546C74.0174 31.8912 73.5781 33.0338 72.7156 34.1035ZM79.6639 38.5776C79.9826 38.4922 80.1813 38.1905 80.8745 36.1413C82.5228 31.1651 85.1072 26.9009 87.5448 24.2911C87.6162 24.2099 87.6586 24.1364 87.6431 24.0784C87.6275 24.0205 87.4226 23.9511 87.3124 23.8875C87.0629 23.768 86.9662 23.6386 86.7343 23.7007C86.5025 23.7629 86.1357 24.0164 85.5836 24.506C84.4426 25.464 83.2365 26.8742 81.9885 28.8236C81.9957 28.3869 81.9528 27.9946 81.8673 27.6759C81.7586 27.2702 81.5496 26.9535 81.1475 26.8438C80.6797 26.7207 80.3242 26.7849 79.785 26.743C79.5956 26.7317 79.3637 26.7938 79.3312 27.0199C79.1217 27.9767 77.9524 31.1474 77.2183 32.9281C76.2741 35.1999 76.0885 36.7094 76.3136 37.5497C76.5699 38.506 77.3932 38.5649 78.3246 38.5638C79.1981 38.5782 79.461 38.632 79.6639 38.5776ZM90.4346 21.8396C90.6183 21.9457 91.2289 21.9063 91.5187 21.8287C92.1272 21.6656 92.5464 21.4912 92.9536 21.0404C93.1678 20.7967 93.5574 20.1643 94.0375 19.2902C94.2766 18.7914 94.2201 18.4649 93.9241 18.1715C93.5391 17.7777 92.8063 17.4771 92.0042 17.3815C91.8438 17.3623 91.7936 17.4068 91.7455 17.575C91.4491 18.5551 90.8521 20.268 90.3606 21.3315C90.241 21.5809 90.2876 21.7548 90.4346 21.8396ZM89.6193 36.5312C91.7926 35.9489 94.1193 31.0705 94.7928 28.7159L94.8409 28.5478C94.9025 28.3139 94.8926 28.1612 94.6355 28.0127L94.5252 27.9491C94.415 27.8854 94.3648 27.9299 94.2318 28.2451L94.176 28.3843C92.5556 32.4212 91.0463 33.9748 89.7309 34.5136C89.5279 32.8287 90.9806 29.2094 91.8824 27.0111C92.5105 25.4141 92.1616 24.5759 91.3363 24.3933C90.9052 24.2914 89.9893 24.3504 89.1292 24.2703C88.7215 24.2553 88.6578 24.3656 88.4809 25.0962C88.2849 25.9874 87.6687 27.8607 86.6417 30.4031C85.5377 33.1215 85.4524 34.5419 86.327 35.4878C86.6018 35.8179 87.0795 36.0937 87.6731 36.3384C88.2589 36.5541 88.9818 36.7021 89.6193 36.5312ZM97.9462 34.0205C100.583 33.314 103.566 29.3778 104.494 26.1166L104.542 25.9484C104.603 25.7145 104.593 25.5619 104.336 25.4134L104.226 25.3498C104.116 25.2861 104.066 25.3306 103.933 25.6458L103.877 25.785C102.599 29.0157 100.032 31.2565 97.4528 31.9476C97.221 32.0097 97.0104 32.0351 96.792 32.0315C96.4177 29.2434 98.3931 26.4157 102.45 23.5895C102.896 23.2836 102.459 22.8107 101.824 22.2974C100.791 21.4561 100.169 21.2191 99.4442 21.4132C98.0533 21.7859 95.4102 23.8607 93.9434 27.08C92.6888 29.9319 93.1164 31.9914 95.2672 33.5271C96.1801 34.1521 97.0189 34.269 97.9462 34.0205ZM107.805 30.9441C108.523 30.379 109.325 29.2012 110.149 27.5209C110.33 29.2425 111.139 30.1749 112.53 29.8022C114.182 29.3596 115.948 27.9545 117.081 26.5019C117.187 26.3182 117.243 26.179 117.15 25.8312C117.064 25.5125 116.997 25.3754 116.817 25.5166C115.747 26.3933 114.919 26.8948 114.036 27.1935C114.042 25.3596 114.459 23.3222 115.253 21.6497C115.394 21.3635 115.316 21.0738 115.19 20.9522C114.682 20.5605 113.471 19.9841 112.806 19.8207C112.47 19.7244 112.151 19.8098 111.935 19.9299C111.3 19.4166 110.392 19.039 109.649 19.0514C108.973 19.0774 108.467 19.2751 107.884 19.6488C106.055 20.822 104.457 22.7409 103.496 24.8311C102.33 27.3177 102.548 29.0605 103.51 29.9831C104.013 30.4694 104.461 30.753 105.126 30.9164C106.52 31.5989 107.166 31.457 107.805 30.9441ZM106.923 29.1615C106.275 26.9747 108.303 22.9528 111.269 21.0399C110.95 21.9331 110.613 23.1104 110.355 24.2354C109.453 26.4337 108.23 28.128 106.923 29.1615Z" fill="#C6232D"/>
<path d="M17 19H15.64V13.18C15.64 11.9666 15.4467 11.0733 15.06 10.5C14.6733 9.92665 14.1 9.63998 13.34 9.63998C12.94 9.63998 12.56 9.71331 12.2 9.85998C11.8533 10.0066 11.5267 10.2133 11.22 10.48C10.9267 10.7466 10.6667 11.0666 10.44 11.44C10.2133 11.8 10.04 12.2 9.92 12.64V19H8.56V13.18C8.56 11.94 8.37333 11.04 8 10.48C7.62667 9.91998 7.05333 9.63998 6.28 9.63998C5.49333 9.63998 4.79333 9.91331 4.18 10.46C3.56667 11.0066 3.12667 11.7266 2.86 12.62V19H1.5V8.57998H2.74V10.94C3.16667 10.14 3.72667 9.51998 4.42 9.07998C5.11333 8.62665 5.88 8.39998 6.72 8.39998C7.6 8.39998 8.3 8.64665 8.82 9.13998C9.35333 9.63331 9.68 10.28 9.8 11.08C10.7733 9.29331 12.1133 8.39998 13.82 8.39998C14.4067 8.39998 14.9 8.50665 15.3 8.71998C15.7133 8.93331 16.04 9.23998 16.28 9.63998C16.5333 10.0266 16.7133 10.5 16.82 11.06C16.94 11.6066 17 12.22 17 12.9V19ZM22.4989 19.2C22.0056 19.2 21.5456 19.12 21.1189 18.96C20.7056 18.7866 20.3389 18.5533 20.0189 18.26C19.7122 17.9666 19.4722 17.6266 19.2989 17.24C19.1256 16.84 19.0389 16.4133 19.0389 15.96C19.0389 15.5066 19.1456 15.0866 19.3589 14.7C19.5722 14.3133 19.8722 13.98 20.2589 13.7C20.6456 13.42 21.1056 13.2066 21.6389 13.06C22.1722 12.9 22.7589 12.82 23.3989 12.82C23.9322 12.82 24.4722 12.8666 25.0189 12.96C25.5656 13.0533 26.0522 13.1866 26.4789 13.36V12.42C26.4789 11.5 26.2189 10.7733 25.6989 10.24C25.1789 9.69331 24.4589 9.41998 23.5389 9.41998C23.0056 9.41998 22.4589 9.52665 21.8989 9.73998C21.3389 9.95331 20.7722 10.26 20.1989 10.66L19.7189 9.75998C21.0656 8.85331 22.3722 8.39998 23.6389 8.39998C24.9456 8.39998 25.9722 8.76665 26.7189 9.49998C27.4656 10.2333 27.8389 11.2466 27.8389 12.54V17.24C27.8389 17.6133 28.0056 17.8 28.3389 17.8V19C28.1122 19.04 27.9389 19.06 27.8189 19.06C27.4722 19.06 27.1989 18.9733 26.9989 18.8C26.8122 18.6266 26.7122 18.3866 26.6989 18.08L26.6589 17.26C26.1789 17.8866 25.5722 18.3666 24.8389 18.7C24.1189 19.0333 23.3389 19.2 22.4989 19.2ZM22.8189 18.16C23.5256 18.16 24.1722 18.0266 24.7589 17.76C25.3589 17.4933 25.8122 17.14 26.1189 16.7C26.2389 16.58 26.3256 16.4533 26.3789 16.32C26.4456 16.1733 26.4789 16.04 26.4789 15.92V14.22C26.0256 14.0466 25.5522 13.9133 25.0589 13.82C24.5789 13.7266 24.0856 13.68 23.5789 13.68C22.6189 13.68 21.8389 13.88 21.2389 14.28C20.6389 14.68 20.3389 15.2066 20.3389 15.86C20.3389 16.18 20.3989 16.48 20.5189 16.76C20.6522 17.04 20.8256 17.2866 21.0389 17.5C21.2656 17.7 21.5322 17.86 21.8389 17.98C22.1456 18.1 22.4722 18.16 22.8189 18.16ZM35.0573 19.2C34.3373 19.2 33.6707 19.0533 33.0573 18.76C32.444 18.4533 31.9173 18.0533 31.4773 17.56C31.0373 17.0666 30.6907 16.5 30.4373 15.86C30.1973 15.2066 30.0773 14.5266 30.0773 13.82C30.0773 13.0866 30.1973 12.3933 30.4373 11.74C30.6773 11.0733 31.004 10.4933 31.4173 9.99998C31.844 9.50665 32.344 9.11998 32.9173 8.83998C33.504 8.54665 34.144 8.39998 34.8373 8.39998C35.7173 8.39998 36.4973 8.63331 37.1773 9.09998C37.8573 9.55331 38.3907 10.1066 38.7773 10.76V4.39998H40.1373V17.24C40.1373 17.6133 40.2973 17.8 40.6173 17.8V19C40.4173 19.04 40.2573 19.06 40.1373 19.06C39.8173 19.06 39.5373 18.96 39.2973 18.76C39.0573 18.5466 38.9373 18.2933 38.9373 18V16.98C38.524 17.66 37.964 18.2 37.2573 18.6C36.5507 19 35.8173 19.2 35.0573 19.2ZM35.3573 18C35.6907 18 36.044 17.9333 36.4173 17.8C36.804 17.6666 37.164 17.4866 37.4973 17.26C37.8307 17.02 38.1107 16.7466 38.3373 16.44C38.5773 16.12 38.724 15.78 38.7773 15.42V12.2C38.644 11.84 38.4507 11.5066 38.1973 11.2C37.944 10.88 37.6507 10.6 37.3173 10.36C36.9973 10.12 36.6507 9.93331 36.2773 9.79998C35.904 9.66665 35.5373 9.59998 35.1773 9.59998C34.6173 9.59998 34.1107 9.71998 33.6573 9.95998C33.204 10.2 32.8107 10.52 32.4773 10.92C32.1573 11.3066 31.9107 11.7533 31.7373 12.26C31.564 12.7666 31.4773 13.2866 31.4773 13.82C31.4773 14.38 31.5773 14.9133 31.7773 15.42C31.9773 15.9266 32.2507 16.3733 32.5973 16.76C32.944 17.1333 33.3507 17.4333 33.8173 17.66C34.2973 17.8866 34.8107 18 35.3573 18ZM47.7188 19.2C46.9588 19.2 46.2588 19.06 45.6188 18.78C44.9921 18.4866 44.4454 18.0933 43.9788 17.6C43.5121 17.0933 43.1454 16.5133 42.8788 15.86C42.6254 15.2066 42.4988 14.5066 42.4988 13.76C42.4988 13.0266 42.6254 12.34 42.8788 11.7C43.1454 11.0466 43.5054 10.48 43.9588 9.99998C44.4254 9.50665 44.9788 9.11998 45.6188 8.83998C46.2588 8.54665 46.9521 8.39998 47.6988 8.39998C48.4588 8.39998 49.1521 8.54665 49.7788 8.83998C50.4188 9.11998 50.9654 9.50665 51.4188 9.99998C51.8721 10.4933 52.2254 11.06 52.4788 11.7C52.7321 12.34 52.8588 13.02 52.8588 13.74C52.8588 13.8466 52.8588 13.9533 52.8588 14.06C52.8588 14.1666 52.8521 14.24 52.8388 14.28H43.9188C43.9588 14.84 44.0854 15.36 44.2988 15.84C44.5254 16.3066 44.8121 16.7133 45.1588 17.06C45.5054 17.4066 45.8988 17.68 46.3388 17.88C46.7921 18.0666 47.2721 18.16 47.7788 18.16C48.1121 18.16 48.4454 18.1133 48.7788 18.02C49.1121 17.9266 49.4188 17.8 49.6988 17.64C49.9788 17.48 50.2321 17.2866 50.4588 17.06C50.6854 16.82 50.8588 16.56 50.9788 16.28L52.1588 16.6C51.9988 16.9866 51.7721 17.34 51.4788 17.66C51.1854 17.9666 50.8454 18.24 50.4588 18.48C50.0721 18.7066 49.6454 18.88 49.1788 19C48.7121 19.1333 48.2254 19.2 47.7188 19.2ZM51.5588 13.24C51.5188 12.68 51.3854 12.1733 51.1588 11.72C50.9454 11.2533 50.6654 10.8533 50.3188 10.52C49.9854 10.1866 49.5921 9.92665 49.1388 9.73998C48.6988 9.55331 48.2254 9.45998 47.7188 9.45998C47.2121 9.45998 46.7321 9.55331 46.2788 9.73998C45.8254 9.92665 45.4254 10.1866 45.0788 10.52C44.7454 10.8533 44.4721 11.2533 44.2588 11.72C44.0588 12.1866 43.9388 12.6933 43.8988 13.24H51.5588Z" fill="#EF0E11"/>
<path d="M61.335 19H67.725C68.1 19 68.265 18.835 68.265 18.46V16.675C68.265 16.3 68.1 16.135 67.725 16.135H66.27V11.095H67.725C68.1 11.095 68.265 10.93 68.265 10.555V8.73998C68.265 8.36498 68.1 8.19998 67.725 8.19998H61.335C60.96 8.19998 60.795 8.36498 60.795 8.73998V10.555C60.795 10.93 60.96 11.095 61.335 11.095H62.82V16.135H61.335C60.96 16.135 60.795 16.3 60.795 16.675V18.46C60.795 18.835 60.96 19 61.335 19ZM72.907 19C73.282 19 73.447 18.835 73.447 18.46V13.51L76.012 16.615V18.46C76.012 18.835 76.177 19 76.552 19H78.802C79.177 19 79.342 18.835 79.342 18.46V8.73998C79.342 8.36498 79.177 8.19998 78.802 8.19998H76.552C76.177 8.19998 76.012 8.36498 76.012 8.73998V11.935L73.102 8.60498C72.847 8.30498 72.607 8.19998 72.217 8.19998H70.657C70.282 8.19998 70.117 8.36498 70.117 8.73998V18.46C70.117 18.835 70.282 19 70.657 19H72.907Z" fill="#85191E"/>
</svg>
