<svg width="122" height="69" viewBox="0 0 122 69" fill="none" xmlns="http://www.w3.org/2000/svg">
<path d="M24.602 61.2276C27.9924 60.3191 31.1393 56.1837 33.3944 49.6473C36.4778 47.3614 37.9012 45.0233 39.088 42.0343L39.1439 41.8951C39.221 41.7192 39.2013 41.4138 38.9596 41.3233L38.8204 41.2674C38.718 41.2328 38.6388 41.285 38.527 41.5635L38.4712 41.7027C37.6889 43.6515 36.0875 45.7888 34.1145 47.4666C35.0194 44.5842 35.7814 41.8643 36.1947 40.0454C36.4331 39.0808 35.9301 38.5944 34.8595 38.5397C34.2623 38.5133 33.8022 38.4192 33.5125 38.4968C33.2227 38.5745 33.1244 38.7872 32.6852 39.9298C31.3116 43.4968 30.1003 45.4675 29.006 46.5993C29.1746 45.3739 29.5263 43.7888 29.7084 42.4977C30.0285 40.331 29.4846 39.5761 28.0987 39.3884C27.5518 39.3175 27.0938 39.3471 26.7461 39.4402C26.5143 39.5024 26.4004 39.6571 26.4279 39.9914C26.4637 40.8204 26.2242 42.5927 25.4312 45.1967C24.4457 48.4734 24.4758 49.3971 25.2629 49.9006C26.1235 50.4464 26.7941 50.5152 27.3447 50.3676C27.6924 50.2745 28.2544 49.9376 28.926 49.1985C29.2328 48.8368 30.0374 47.7826 30.9051 46.1525C30.4721 47.6662 30.0582 49.0194 29.6055 50.2277C25.8763 52.1898 22.7478 53.9598 21.2856 56.153C20.0935 57.9632 20.5304 59.7096 21.5344 60.5587C22.2656 61.2014 23.3849 61.5537 24.602 61.2276ZM23.5667 56.7841C24.512 55.4438 25.7145 54.2519 28.754 52.3815C26.9696 56.6177 25.0261 58.7535 22.9319 59.2836C22.7244 58.6248 22.8413 57.786 23.5667 56.7841ZM42.8044 47.188C45.7022 46.4116 48.7782 42.8232 49.8155 39.1599L49.8636 38.9917C49.9251 38.7578 49.9153 38.6052 49.6581 38.4567L49.5479 38.393C49.4376 38.3294 49.3874 38.3739 49.2545 38.689L49.1986 38.8282C47.8576 42.1692 45.4873 44.4504 43.169 45.0716C42.7344 45.188 42.2842 45.2465 41.9054 45.2238C41.7832 44.8838 41.719 44.5283 41.676 44.1361C43.4623 43.0363 44.9489 41.8615 45.8425 40.9077C47.3864 39.2517 47.7543 38.1903 47.5679 37.4949C47.3893 36.8284 46.8729 36.4077 46.0878 36.028C44.9503 35.0283 44.2719 34.9306 43.4895 35.1402C41.519 35.6682 39.1451 38.1678 38.0969 40.747C37.3012 42.7615 37.3692 44.6379 38.0678 45.5067C38.7743 46.4044 39.8921 47.0988 40.8779 47.3005C41.4404 47.4293 42.051 47.3899 42.8044 47.188ZM44.6046 39.9971C44.0566 40.734 42.9602 41.7422 41.8249 42.6054C42.2744 40.3419 43.8717 37.9573 45.5518 37.0412C45.8349 37.866 45.6311 38.7282 44.6046 39.9971ZM53.1311 43.9862C53.8493 43.4211 54.6518 42.2432 55.4749 40.5629C55.6567 42.2845 56.4366 43.2247 57.7406 42.8753C60.7543 42.0678 63.006 37.489 63.5833 35.4708L63.6314 35.3026C63.693 35.0687 63.6831 34.9161 63.4259 34.7676L63.3157 34.7039C63.2055 34.6403 63.1553 34.6848 63.0223 35L62.9664 35.1392C61.7237 38.2674 60.6025 39.5306 59.3606 40.1119C59.3739 38.3069 59.8063 36.3276 60.5793 34.6918C60.72 34.4056 60.6424 34.1158 60.5166 33.9942C60.0079 33.6025 58.7975 33.0262 58.1325 32.8627C57.7962 32.7665 57.4774 32.8519 57.2611 32.972C56.6267 32.4587 55.7179 32.081 54.9759 32.0935C54.2996 32.1194 53.7935 32.3171 53.2103 32.6908C51.3817 33.8641 49.7839 35.783 48.8221 37.8732C47.6559 40.3597 47.8744 42.1025 48.836 43.0251C49.339 43.5115 49.7877 43.795 50.4526 43.9585C51.8468 44.6409 52.4921 44.4991 53.1311 43.9862ZM52.2497 42.2036C51.6016 40.0168 53.6298 35.9948 56.5957 34.082C56.276 34.9752 55.9393 36.1525 55.6816 37.2775C54.7799 39.4758 53.5567 41.1701 52.2497 42.2036ZM65.4007 40.7918C65.7194 40.7063 65.9181 40.4046 66.6113 38.3554C68.2596 33.3792 70.844 29.115 73.2816 26.5052C73.353 26.424 73.3954 26.3505 73.3799 26.2925C73.3643 26.2346 73.1594 26.1653 73.0492 26.1016C72.7998 25.9821 72.703 25.8527 72.4712 25.9149C72.2393 25.977 71.8725 26.2306 71.3204 26.7201C70.1794 27.6781 68.9733 29.0883 67.7253 31.0377C67.7325 30.601 67.6896 30.2087 67.6042 29.89C67.4954 29.4843 67.2864 29.1676 66.8843 29.0579C66.4165 28.9348 66.061 28.999 65.5218 28.9572C65.3324 28.9458 65.1005 29.0079 65.068 29.234C64.8585 30.1909 63.6893 33.3615 62.9551 35.1422C62.0109 37.414 61.8253 38.9235 62.0505 39.7638C62.3067 40.7201 63.13 40.779 64.0614 40.7779C64.9349 40.7923 65.1978 40.8461 65.4007 40.7918ZM77.1789 18.1933C76.2499 21.7965 74.6933 27.4625 72.6958 32.8738C72.5784 33.2469 72.8335 33.2718 72.9706 33.204C73.4399 32.985 74.2378 32.8333 74.8231 32.5834C75.5087 32.2443 76.1896 31.1923 76.7235 30.0553C78.1034 26.8593 79.8887 21.8154 80.3429 20.265C80.674 19.1824 80.5705 18.2163 79.8066 17.7998C78.7566 17.2426 78.0451 16.9052 77.6973 16.9984C77.4655 17.0605 77.404 17.2944 77.1789 18.1933ZM71.0367 38.5051C70.9483 38.8705 71.0549 39.1525 71.4916 39.1597C72.0231 39.1726 72.5545 39.1855 73.308 38.9836C73.5108 38.9292 73.6769 38.8537 73.8042 38.6332C74.1648 38.0086 74.4633 37.1521 74.6925 36.5006C74.9217 35.8491 74.5636 35.3239 74.0378 35.2163C73.6067 35.1144 73.1332 35.086 72.7255 35.071C72.223 35.0504 72.0222 35.2284 71.897 35.5725C71.6332 36.3265 71.2964 37.5038 71.0367 38.5051Z" fill="#F3BC10"/>
<path d="M53.62 53.58H54.96L50.48 64H49.36L47.12 58.68L44.9 64H43.78L39.3 53.58H40.62L44.42 62.6L46.4 57.84L44.62 53.6H45.76L47.12 57L48.48 53.6H49.64L47.86 57.84L49.84 62.6L53.62 53.58ZM59.1356 64.2C58.6423 64.2 58.1823 64.12 57.7556 63.96C57.3423 63.7866 56.9756 63.5533 56.6556 63.26C56.349 62.9666 56.109 62.6266 55.9356 62.24C55.7623 61.84 55.6756 61.4133 55.6756 60.96C55.6756 60.5066 55.7823 60.0866 55.9956 59.7C56.209 59.3133 56.509 58.98 56.8956 58.7C57.2823 58.42 57.7423 58.2066 58.2756 58.06C58.809 57.9 59.3956 57.82 60.0356 57.82C60.569 57.82 61.109 57.8666 61.6556 57.96C62.2023 58.0533 62.689 58.1866 63.1156 58.36V57.42C63.1156 56.5 62.8556 55.7733 62.3356 55.24C61.8156 54.6933 61.0956 54.42 60.1756 54.42C59.6423 54.42 59.0956 54.5266 58.5356 54.74C57.9756 54.9533 57.409 55.26 56.8356 55.66L56.3556 54.76C57.7023 53.8533 59.009 53.4 60.2756 53.4C61.5823 53.4 62.609 53.7666 63.3556 54.5C64.1023 55.2333 64.4756 56.2466 64.4756 57.54V62.24C64.4756 62.6133 64.6423 62.8 64.9756 62.8V64C64.749 64.04 64.5756 64.06 64.4556 64.06C64.109 64.06 63.8356 63.9733 63.6356 63.8C63.449 63.6266 63.349 63.3866 63.3356 63.08L63.2956 62.26C62.8156 62.8866 62.209 63.3666 61.4756 63.7C60.7556 64.0333 59.9756 64.2 59.1356 64.2ZM59.4556 63.16C60.1623 63.16 60.809 63.0266 61.3956 62.76C61.9956 62.4933 62.449 62.14 62.7556 61.7C62.8756 61.58 62.9623 61.4533 63.0156 61.32C63.0823 61.1733 63.1156 61.04 63.1156 60.92V59.22C62.6623 59.0466 62.189 58.9133 61.6956 58.82C61.2156 58.7266 60.7223 58.68 60.2156 58.68C59.2556 58.68 58.4756 58.88 57.8756 59.28C57.2756 59.68 56.9756 60.2066 56.9756 60.86C56.9756 61.18 57.0356 61.48 57.1556 61.76C57.289 62.04 57.4623 62.2866 57.6756 62.5C57.9023 62.7 58.169 62.86 58.4756 62.98C58.7823 63.1 59.109 63.16 59.4556 63.16ZM72.6141 54.78C71.6941 54.8066 70.8941 55.06 70.2141 55.54C69.5341 56.02 69.0541 56.68 68.7741 57.52V64H67.4141V53.58H68.6941V56.08C69.0807 55.28 69.6007 54.6533 70.2541 54.2C70.9074 53.7466 71.6074 53.52 72.3541 53.52C72.4607 53.52 72.5474 53.5266 72.6141 53.54V54.78ZM79.6258 54.78C78.7058 54.8066 77.9058 55.06 77.2258 55.54C76.5458 56.02 76.0658 56.68 75.7858 57.52V64H74.4258V53.58H75.7058V56.08C76.0924 55.28 76.6124 54.6533 77.2658 54.2C77.9191 53.7466 78.6191 53.52 79.3658 53.52C79.4724 53.52 79.5591 53.5266 79.6258 53.54V54.78ZM83.9208 64.2C83.4274 64.2 82.9674 64.12 82.5408 63.96C82.1274 63.7866 81.7608 63.5533 81.4408 63.26C81.1341 62.9666 80.8941 62.6266 80.7208 62.24C80.5474 61.84 80.4608 61.4133 80.4608 60.96C80.4608 60.5066 80.5674 60.0866 80.7808 59.7C80.9941 59.3133 81.2941 58.98 81.6808 58.7C82.0674 58.42 82.5274 58.2066 83.0608 58.06C83.5941 57.9 84.1808 57.82 84.8208 57.82C85.3541 57.82 85.8941 57.8666 86.4408 57.96C86.9874 58.0533 87.4741 58.1866 87.9008 58.36V57.42C87.9008 56.5 87.6408 55.7733 87.1208 55.24C86.6008 54.6933 85.8808 54.42 84.9608 54.42C84.4274 54.42 83.8808 54.5266 83.3208 54.74C82.7608 54.9533 82.1941 55.26 81.6208 55.66L81.1408 54.76C82.4874 53.8533 83.7941 53.4 85.0608 53.4C86.3674 53.4 87.3941 53.7666 88.1408 54.5C88.8874 55.2333 89.2608 56.2466 89.2608 57.54V62.24C89.2608 62.6133 89.4274 62.8 89.7608 62.8V64C89.5341 64.04 89.3608 64.06 89.2408 64.06C88.8941 64.06 88.6208 63.9733 88.4208 63.8C88.2341 63.6266 88.1341 63.3866 88.1208 63.08L88.0808 62.26C87.6008 62.8866 86.9941 63.3666 86.2608 63.7C85.5408 64.0333 84.7608 64.2 83.9208 64.2ZM84.2408 63.16C84.9474 63.16 85.5941 63.0266 86.1808 62.76C86.7808 62.4933 87.2341 62.14 87.5408 61.7C87.6608 61.58 87.7474 61.4533 87.8008 61.32C87.8674 61.1733 87.9008 61.04 87.9008 60.92V59.22C87.4474 59.0466 86.9741 58.9133 86.4808 58.82C86.0008 58.7266 85.5074 58.68 85.0008 58.68C84.0408 58.68 83.2608 58.88 82.6608 59.28C82.0608 59.68 81.7608 60.2066 81.7608 60.86C81.7608 61.18 81.8208 61.48 81.9408 61.76C82.0741 62.04 82.2474 62.2866 82.4608 62.5C82.6874 62.7 82.9541 62.86 83.2608 62.98C83.5674 63.1 83.8941 63.16 84.2408 63.16ZM100.959 64H99.5992V58.18C99.5992 56.94 99.4126 56.04 99.0392 55.48C98.6792 54.92 98.1192 54.64 97.3592 54.64C96.9592 54.64 96.5592 54.7133 96.1592 54.86C95.7592 55.0066 95.3859 55.2133 95.0392 55.48C94.7059 55.7466 94.4059 56.0666 94.1392 56.44C93.8726 56.8 93.6792 57.1933 93.5592 57.62V64H92.1992V53.58H93.4392V55.94C93.8659 55.18 94.4726 54.5666 95.2592 54.1C96.0592 53.6333 96.9259 53.4 97.8592 53.4C98.4326 53.4 98.9192 53.5066 99.3192 53.72C99.7192 53.9333 100.039 54.2333 100.279 54.62C100.519 55.0066 100.693 55.48 100.799 56.04C100.906 56.6 100.959 57.22 100.959 57.9V64ZM108.762 63.5C108.682 63.54 108.562 63.5933 108.402 63.66C108.255 63.7266 108.082 63.7933 107.882 63.86C107.682 63.9266 107.455 63.9866 107.202 64.04C106.948 64.0933 106.682 64.12 106.402 64.12C106.108 64.12 105.828 64.08 105.562 64C105.295 63.92 105.062 63.8 104.862 63.64C104.662 63.4666 104.502 63.2533 104.382 63C104.262 62.7466 104.202 62.4533 104.202 62.12V54.66H102.762V53.58H104.202V50.06H105.562V53.58H107.962V54.66H105.562V61.74C105.588 62.1266 105.722 62.4133 105.962 62.6C106.215 62.7733 106.502 62.86 106.822 62.86C107.208 62.86 107.548 62.8 107.842 62.68C108.135 62.5466 108.322 62.4533 108.402 62.4L108.762 63.5ZM111.061 67.2C111.168 67.2133 111.268 67.22 111.361 67.22C111.468 67.2333 111.568 67.24 111.661 67.24C111.901 67.24 112.088 67.2066 112.221 67.14C112.368 67.0733 112.508 66.9266 112.641 66.7C112.774 66.4733 112.921 66.1466 113.081 65.72C113.254 65.2933 113.494 64.72 113.801 64L109.261 53.58H110.661L114.521 62.74L118.101 53.58H119.401L114.001 67.02C113.854 67.4066 113.608 67.74 113.261 68.02C112.928 68.3133 112.468 68.46 111.881 68.46C111.748 68.46 111.621 68.4533 111.501 68.44C111.381 68.44 111.234 68.4266 111.061 68.4V67.2Z" fill="#D59A0A"/>
<path d="M15.78 35C16.53 35 16.86 34.67 16.86 33.92V30.29C16.86 29.54 16.53 29.21 15.78 29.21H12.9V14.48C12.9 13.73 12.57 13.4 11.82 13.4H3.12C2.37 13.4 2.04 13.73 2.04 14.48V18.11C2.04 18.86 2.37 19.19 3.12 19.19H5.88V29.21H2.52C1.77 29.21 1.44 29.54 1.44 30.29V33.92C1.44 34.67 1.77 35 2.52 35H15.78ZM38.0876 29.33V19.1C38.0876 15.44 36.3176 12.95 28.9376 12.95C21.5576 12.95 19.7576 15.44 19.7576 19.1V29.33C19.7576 32.99 21.5576 35.45 28.9376 35.45C36.3176 35.45 38.0876 32.99 38.0876 29.33ZM26.5376 28.25V20.18C26.5376 19.4 26.8976 18.8 28.9376 18.8C31.0076 18.8 31.3376 19.4 31.3376 20.18V28.25C31.3376 29.06 31.0076 29.66 28.9376 29.66C26.8976 29.66 26.5376 29.06 26.5376 28.25Z" fill="#EBAE16"/>
</svg>
