<svg width="142" height="78" viewBox="0 0 142 78" fill="none" xmlns="http://www.w3.org/2000/svg">
<path d="M8.99407 45.2185C10.0373 44.939 11.0566 44.1068 11.5699 43.4723C12.6466 42.1589 12.8328 41.1151 12.5844 40.1878C12.0952 38.3622 10.1744 38.38 9.94142 37.5107C9.66966 36.4964 11.5091 34.6681 13.3667 33.487C13.6544 33.2857 13.6192 32.9224 12.6287 32.0076C11.7272 31.1932 10.9831 31.082 10.2296 31.2839C9.73701 31.4159 8.90858 31.9174 8.30061 32.5462C7.16951 33.6568 6.56625 34.9986 6.89236 36.2157C7.30388 37.7515 9.41261 38.0872 9.6999 39.1594C9.94837 40.0866 8.89339 41.8291 6.25961 43.5908C6.05108 43.7398 6.03971 43.9292 6.2255 44.159C6.41906 44.4177 6.70732 44.6821 7.11925 44.9444C7.67815 45.2916 8.21167 45.4281 8.99407 45.2185ZM22.6214 38.8029C23.1705 38.9974 23.762 39.1184 24.3126 38.9709C25.8484 38.5594 26.8552 36.9851 27.3022 35.8715C27.4352 35.5564 27.4176 35.3747 27.3865 35.2588C27.3555 35.1429 27.2644 34.9188 27.2121 34.8397C27.1676 34.7895 27.0807 34.8128 27.0382 34.8863C26.4945 35.8705 25.7706 36.5304 24.9401 36.9082C24.6636 35.1809 25.794 31.8654 26.0495 30.6167C26.3128 29.397 25.9278 29.0032 24.6351 29.1632C24.0323 29.2316 23.0527 29.4009 22.705 29.4941C22.4732 29.5562 22.3593 29.7109 22.2786 30.1052C21.0698 35.678 19.2733 37.8986 18.1184 38.4566C18.3889 36.8001 19.3088 35.2492 20.2151 32.0247C20.5654 30.7817 20.4944 29.5895 19.2923 29.5078C18.6294 29.468 17.4894 29.6182 17.0837 29.7269C16.707 29.8278 16.5797 30.0483 16.4778 30.4793C16.3837 30.9394 15.7287 32.6678 14.5341 35.6278C13.8077 37.4375 13.589 38.7074 13.8297 39.6057C14.0238 40.3302 14.4399 40.8398 15.4723 41.2154C16.292 41.4927 16.9046 41.577 17.4842 41.4217C18.7302 41.0878 20.0036 39.349 21.0963 36.82C21.1264 37.7437 21.5233 38.4138 22.6214 38.8029ZM26.416 47.4142C27.5922 46.8195 28.3181 46.2834 29.4413 43.4046C30.1599 41.5659 31.1496 38.5365 32.0233 35.5382C32.6273 36.4013 33.418 36.6864 34.4033 36.4224C36.026 35.9876 38.1206 34.184 39.175 31.9759C39.6955 30.9047 40.0478 29.7853 40.1471 28.7649C41.9643 27.781 43.5958 26.5674 44.3321 24.9104L44.4091 24.7344C44.5074 24.5217 44.4686 24.3768 44.3061 24.234L44.2249 24.1626C44.1069 24.07 44.0122 24.0643 43.8425 24.3583L43.7576 24.5052C42.9303 25.9382 41.6077 26.9137 40.1651 27.673C40.1319 27.4334 40.0988 27.1938 40.0367 26.962C39.7882 26.0347 39.3121 25.4169 38.732 25.1065C38.1519 24.796 37.5449 24.617 36.7625 24.8267C36.009 25.0286 35.028 25.5399 34.1224 26.2174C33.9827 25.6958 33.4916 25.4857 32.8499 25.4092C32.098 25.269 31.8217 25.2809 31.6478 25.3275C31.2711 25.4285 31.0533 25.8906 29.1645 31.7076C27.8494 35.7249 26.4449 40.9153 24.8889 47.0469C24.712 47.7776 25.0349 47.9395 25.4696 47.8231C25.7014 47.761 26.0046 47.6176 26.416 47.4142ZM33.3259 30.7789C34.3296 28.1496 36.6001 26.4231 37.9445 25.8765C38.1308 26.572 37.8732 27.697 37.2968 28.9074C35.5701 29.6496 34.2703 30.2464 33.3259 30.7789ZM32.7264 33.6416C32.3848 32.3666 33.9377 31.671 36.35 30.5898C35.4627 31.9146 34.2757 33.1644 32.8776 33.9738C32.8253 33.8947 32.7575 33.7576 32.7264 33.6416ZM46.5377 33.699C49.4355 32.9225 52.5116 29.3341 53.5488 25.6708L53.5969 25.5026C53.6585 25.2687 53.6486 25.1161 53.3914 24.9676L53.2812 24.904C53.171 24.8403 53.1208 24.8848 52.9878 25.2L52.9319 25.3392C51.5909 28.6801 49.2206 30.9613 46.9024 31.5825C46.4677 31.6989 46.0175 31.7575 45.6387 31.7347C45.5166 31.3948 45.4524 31.0393 45.4094 30.647C47.1956 29.5472 48.6822 28.3724 49.5758 27.4187C51.1198 25.7626 51.4876 24.7013 51.3013 24.0058C51.1227 23.3393 50.6062 22.9186 49.8212 22.5389C48.6837 21.5392 48.0053 21.4415 47.2229 21.6511C45.2524 22.1791 42.8784 24.6787 41.8302 27.2579C41.0345 29.2725 41.1025 31.1488 41.8012 32.0176C42.5076 32.9153 43.6254 33.6097 44.6112 33.8114C45.1737 33.9402 45.7843 33.9008 46.5377 33.699ZM48.3379 26.508C47.79 27.2449 46.6935 28.2531 45.5583 29.1163C46.0078 26.8529 47.605 24.4682 49.2851 23.5521C49.5683 24.377 49.3645 25.2391 48.3379 26.508ZM55.043 31.2336C55.5066 31.1094 55.6339 30.889 56.4218 28.8454C58.5352 23.403 60.6105 20.0206 62.8065 17.3202C63.0843 16.9662 63.2406 16.738 63.1629 16.4482C63.0853 16.1585 62.8741 15.7181 62.6423 15.7802C62.4974 15.8191 62.2754 16.0338 61.8315 16.4634C60.4572 17.8255 59.249 19.112 58.0201 20.901C57.9973 19.5406 57.6278 19.2048 57.1599 19.0817C56.7289 18.9798 56.0158 18.9845 55.4864 19.0953C55.1309 19.1595 55.0016 19.2562 54.9612 19.4534C54.7786 20.2788 54.0663 22.4884 52.9353 25.3383C52.0413 27.5655 51.6911 28.8085 51.9551 29.7938C52.1259 30.4313 52.5166 30.7304 53.3074 31.0154C54.0613 31.2793 54.6083 31.3501 55.043 31.2336Z" fill="#0D6EF0"/>
<path d="M53.296 73.1598C52.9013 73.1598 52.5333 73.0958 52.192 72.9678C51.8613 72.8291 51.568 72.6424 51.312 72.4078C51.0667 72.1731 50.8747 71.9011 50.736 71.5918C50.5973 71.2718 50.528 70.9304 50.528 70.5678C50.528 70.2051 50.6133 69.8691 50.784 69.5598C50.9547 69.2504 51.1947 68.9838 51.504 68.7598C51.8133 68.5358 52.1813 68.3651 52.608 68.2478C53.0347 68.1198 53.504 68.0558 54.016 68.0558C54.4427 68.0558 54.8747 68.0931 55.312 68.1678C55.7493 68.2424 56.1387 68.3491 56.48 68.4878V67.7358C56.48 66.9998 56.272 66.4184 55.856 65.9918C55.44 65.5544 54.864 65.3358 54.128 65.3358C53.7013 65.3358 53.264 65.4211 52.816 65.5918C52.368 65.7624 51.9147 66.0078 51.456 66.3278L51.072 65.6078C52.1493 64.8824 53.1947 64.5198 54.208 64.5198C55.2533 64.5198 56.0747 64.8131 56.672 65.3998C57.2693 65.9864 57.568 66.7971 57.568 67.8318V71.5918C57.568 71.8904 57.7013 72.0398 57.968 72.0398V72.9998C57.7867 73.0318 57.648 73.0478 57.552 73.0478C57.2747 73.0478 57.056 72.9784 56.896 72.8398C56.7467 72.7011 56.6667 72.5091 56.656 72.2638L56.624 71.6078C56.24 72.1091 55.7547 72.4931 55.168 72.7598C54.592 73.0264 53.968 73.1598 53.296 73.1598ZM53.552 72.3278C54.1173 72.3278 54.6347 72.2211 55.104 72.0078C55.584 71.7944 55.9467 71.5118 56.192 71.1598C56.288 71.0638 56.3573 70.9624 56.4 70.8558C56.4533 70.7384 56.48 70.6318 56.48 70.5358V69.1758C56.1173 69.0371 55.7387 68.9304 55.344 68.8558C54.96 68.7811 54.5653 68.7438 54.16 68.7438C53.392 68.7438 52.768 68.9038 52.288 69.2238C51.808 69.5438 51.568 69.9651 51.568 70.4878C51.568 70.7438 51.616 70.9838 51.712 71.2078C51.8187 71.4318 51.9573 71.6291 52.128 71.7998C52.3093 71.9598 52.5227 72.0878 52.768 72.1838C53.0133 72.2798 53.2747 72.3278 53.552 72.3278ZM62.6868 73.1598C62.0361 73.1598 61.4014 73.0531 60.7828 72.8398C60.1641 72.6264 59.6308 72.3171 59.1828 71.9118L59.6788 71.1758C60.1481 71.5598 60.6228 71.8478 61.1028 72.0398C61.5934 72.2318 62.1161 72.3278 62.6708 72.3278C63.3428 72.3278 63.8761 72.1944 64.2708 71.9278C64.6761 71.6504 64.8788 71.2611 64.8788 70.7598C64.8788 70.5251 64.8254 70.3331 64.7188 70.1838C64.6121 70.0238 64.4521 69.8851 64.2388 69.7678C64.0361 69.6504 63.7748 69.5491 63.4548 69.4638C63.1454 69.3678 62.7828 69.2718 62.3668 69.1758C61.8868 69.0584 61.4708 68.9411 61.1188 68.8238C60.7668 68.7064 60.4734 68.5731 60.2388 68.4238C60.0148 68.2744 59.8441 68.0931 59.7268 67.8798C59.6201 67.6558 59.5668 67.3784 59.5668 67.0478C59.5668 66.6318 59.6468 66.2638 59.8068 65.9438C59.9774 65.6238 60.2014 65.3624 60.4788 65.1598C60.7668 64.9464 61.0974 64.7864 61.4708 64.6798C61.8548 64.5731 62.2601 64.5198 62.6868 64.5198C63.3268 64.5198 63.9081 64.6264 64.4308 64.8398C64.9534 65.0424 65.3748 65.3144 65.6948 65.6558L65.1668 66.2958C64.8574 65.9758 64.4788 65.7358 64.0308 65.5758C63.5934 65.4158 63.1348 65.3358 62.6548 65.3358C62.3668 65.3358 62.1001 65.3678 61.8548 65.4318C61.6094 65.4851 61.3908 65.5758 61.1988 65.7038C61.0174 65.8318 60.8734 65.9971 60.7668 66.1998C60.6601 66.3918 60.6068 66.6211 60.6068 66.8878C60.6068 67.1118 60.6441 67.2931 60.7188 67.4318C60.7934 67.5704 60.9161 67.6931 61.0868 67.7998C61.2574 67.8958 61.4708 67.9864 61.7268 68.0718C61.9934 68.1464 62.3134 68.2264 62.6868 68.3118C63.2201 68.4398 63.6894 68.5678 64.0948 68.6958C64.5001 68.8238 64.8361 68.9731 65.1028 69.1438C65.3801 69.3144 65.5881 69.5224 65.7268 69.7678C65.8654 70.0131 65.9348 70.3118 65.9348 70.6638C65.9348 71.4318 65.6414 72.0398 65.0548 72.4878C64.4681 72.9358 63.6788 73.1598 62.6868 73.1598ZM70.4836 73.1598C69.833 73.1598 69.1983 73.0531 68.5796 72.8398C67.961 72.6264 67.4276 72.3171 66.9796 71.9118L67.4756 71.1758C67.945 71.5598 68.4196 71.8478 68.8996 72.0398C69.3903 72.2318 69.913 72.3278 70.4676 72.3278C71.1396 72.3278 71.673 72.1944 72.0676 71.9278C72.473 71.6504 72.6756 71.2611 72.6756 70.7598C72.6756 70.5251 72.6223 70.3331 72.5156 70.1838C72.409 70.0238 72.249 69.8851 72.0356 69.7678C71.833 69.6504 71.5716 69.5491 71.2516 69.4638C70.9423 69.3678 70.5796 69.2718 70.1636 69.1758C69.6836 69.0584 69.2676 68.9411 68.9156 68.8238C68.5636 68.7064 68.2703 68.5731 68.0356 68.4238C67.8116 68.2744 67.641 68.0931 67.5236 67.8798C67.417 67.6558 67.3636 67.3784 67.3636 67.0478C67.3636 66.6318 67.4436 66.2638 67.6036 65.9438C67.7743 65.6238 67.9983 65.3624 68.2756 65.1598C68.5636 64.9464 68.8943 64.7864 69.2676 64.6798C69.6516 64.5731 70.057 64.5198 70.4836 64.5198C71.1236 64.5198 71.705 64.6264 72.2276 64.8398C72.7503 65.0424 73.1716 65.3144 73.4916 65.6558L72.9636 66.2958C72.6543 65.9758 72.2756 65.7358 71.8276 65.5758C71.3903 65.4158 70.9316 65.3358 70.4516 65.3358C70.1636 65.3358 69.897 65.3678 69.6516 65.4318C69.4063 65.4851 69.1876 65.5758 68.9956 65.7038C68.8143 65.8318 68.6703 65.9971 68.5636 66.1998C68.457 66.3918 68.4036 66.6211 68.4036 66.8878C68.4036 67.1118 68.441 67.2931 68.5156 67.4318C68.5903 67.5704 68.713 67.6931 68.8836 67.7998C69.0543 67.8958 69.2676 67.9864 69.5236 68.0718C69.7903 68.1464 70.1103 68.2264 70.4836 68.3118C71.017 68.4398 71.4863 68.5678 71.8916 68.6958C72.297 68.8238 72.633 68.9731 72.8996 69.1438C73.177 69.3144 73.385 69.5224 73.5236 69.7678C73.6623 70.0131 73.7316 70.3118 73.7316 70.6638C73.7316 71.4318 73.4383 72.0398 72.8516 72.4878C72.265 72.9358 71.4756 73.1598 70.4836 73.1598ZM79.1125 73.1598C78.5045 73.1598 77.9445 73.0478 77.4325 72.8238C76.9312 72.5891 76.4938 72.2744 76.1205 71.8798C75.7472 71.4744 75.4538 71.0104 75.2405 70.4878C75.0378 69.9651 74.9365 69.4051 74.9365 68.8078C74.9365 68.2211 75.0378 67.6718 75.2405 67.1598C75.4538 66.6371 75.7418 66.1838 76.1045 65.7998C76.4778 65.4051 76.9205 65.0958 77.4325 64.8718C77.9445 64.6371 78.4992 64.5198 79.0965 64.5198C79.7045 64.5198 80.2592 64.6371 80.7605 64.8718C81.2725 65.0958 81.7098 65.4051 82.0725 65.7998C82.4352 66.1944 82.7178 66.6478 82.9205 67.1598C83.1232 67.6718 83.2245 68.2158 83.2245 68.7918C83.2245 68.8771 83.2245 68.9624 83.2245 69.0478C83.2245 69.1331 83.2192 69.1918 83.2085 69.2238H76.0725C76.1045 69.6718 76.2058 70.0878 76.3765 70.4718C76.5578 70.8451 76.7872 71.1704 77.0645 71.4478C77.3418 71.7251 77.6565 71.9438 78.0085 72.1038C78.3712 72.2531 78.7552 72.3278 79.1605 72.3278C79.4272 72.3278 79.6938 72.2904 79.9605 72.2158C80.2272 72.1411 80.4725 72.0398 80.6965 71.9118C80.9205 71.7838 81.1232 71.6291 81.3045 71.4478C81.4858 71.2558 81.6245 71.0478 81.7205 70.8238L82.6645 71.0798C82.5365 71.3891 82.3552 71.6718 82.1205 71.9278C81.8858 72.1731 81.6138 72.3918 81.3045 72.5838C80.9952 72.7651 80.6538 72.9038 80.2805 72.9998C79.9072 73.1064 79.5178 73.1598 79.1125 73.1598ZM82.1845 68.3918C82.1525 67.9438 82.0458 67.5384 81.8645 67.1758C81.6938 66.8024 81.4698 66.4824 81.1925 66.2158C80.9258 65.9491 80.6112 65.7411 80.2485 65.5918C79.8965 65.4424 79.5178 65.3678 79.1125 65.3678C78.7072 65.3678 78.3232 65.4424 77.9605 65.5918C77.5978 65.7411 77.2778 65.9491 77.0005 66.2158C76.7338 66.4824 76.5152 66.8024 76.3445 67.1758C76.1845 67.5491 76.0885 67.9544 76.0565 68.3918H82.1845ZM97.3031 72.9998H96.2151V68.3438C96.2151 67.3731 96.0605 66.6584 95.7511 66.1998C95.4418 65.7411 94.9831 65.5118 94.3751 65.5118C94.0551 65.5118 93.7511 65.5704 93.4631 65.6878C93.1858 65.8051 92.9245 65.9704 92.6791 66.1838C92.4445 66.3971 92.2365 66.6531 92.0551 66.9518C91.8738 67.2398 91.7351 67.5598 91.6391 67.9118V72.9998H90.5511V68.3438C90.5511 67.3518 90.4018 66.6318 90.1031 66.1838C89.8045 65.7358 89.3458 65.5118 88.7271 65.5118C88.0978 65.5118 87.5378 65.7304 87.0471 66.1678C86.5565 66.6051 86.2045 67.1811 85.9911 67.8958V72.9998H84.9031V64.6638H85.8951V66.5518C86.2365 65.9118 86.6845 65.4158 87.2391 65.0638C87.7938 64.7011 88.4071 64.5198 89.0791 64.5198C89.7831 64.5198 90.3431 64.7171 90.7591 65.1118C91.1858 65.5064 91.4471 66.0238 91.5431 66.6638C92.3218 65.2344 93.3938 64.5198 94.7591 64.5198C95.2285 64.5198 95.6231 64.6051 95.9431 64.7758C96.2738 64.9464 96.5351 65.1918 96.7271 65.5118C96.9298 65.8211 97.0738 66.1998 97.1591 66.6478C97.2551 67.0851 97.3031 67.5758 97.3031 68.1198V72.9998ZM103.686 73.1598C103.025 73.1598 102.417 72.9944 101.862 72.6638C101.318 72.3331 100.892 71.9064 100.582 71.3838V72.9998H99.6063V61.3198H100.694V66.4078C101.068 65.8424 101.516 65.3891 102.038 65.0478C102.561 64.6958 103.169 64.5198 103.862 64.5198C104.449 64.5198 104.972 64.6424 105.43 64.8878C105.9 65.1331 106.294 65.4638 106.614 65.8798C106.945 66.2851 107.196 66.7491 107.366 67.2718C107.548 67.7838 107.638 68.3118 107.638 68.8558C107.638 69.4424 107.537 69.9971 107.334 70.5198C107.132 71.0424 106.854 71.5011 106.502 71.8958C106.15 72.2798 105.729 72.5891 105.238 72.8238C104.758 73.0478 104.241 73.1598 103.686 73.1598ZM103.43 72.1998C103.889 72.1998 104.305 72.1091 104.678 71.9278C105.062 71.7358 105.388 71.4851 105.654 71.1758C105.932 70.8558 106.145 70.4984 106.294 70.1038C106.454 69.6984 106.534 69.2824 106.534 68.8558C106.534 68.4184 106.46 67.9971 106.31 67.5918C106.172 67.1864 105.969 66.8291 105.702 66.5198C105.446 66.1998 105.132 65.9491 104.758 65.7678C104.396 65.5758 103.996 65.4798 103.558 65.4798C103.228 65.4798 102.918 65.5384 102.63 65.6558C102.342 65.7624 102.076 65.9118 101.83 66.1038C101.585 66.2958 101.366 66.5198 101.174 66.7758C100.982 67.0211 100.822 67.2824 100.694 67.5598V70.1518C100.737 70.4398 100.849 70.7118 101.03 70.9678C101.222 71.2131 101.446 71.4264 101.702 71.6078C101.969 71.7891 102.252 71.9331 102.55 72.0398C102.86 72.1464 103.153 72.1998 103.43 72.1998ZM109.529 61.3198H110.617V71.1118C110.617 71.4211 110.703 71.6664 110.873 71.8478C111.044 72.0184 111.284 72.1038 111.593 72.1038C111.711 72.1038 111.849 72.0878 112.009 72.0558C112.169 72.0238 112.319 71.9811 112.457 71.9278L112.649 72.8078C112.447 72.8931 112.196 72.9624 111.897 73.0158C111.609 73.0691 111.359 73.0958 111.145 73.0958C110.644 73.0958 110.249 72.9571 109.961 72.6798C109.673 72.3918 109.529 71.9918 109.529 71.4798V61.3198ZM114.149 75.5598C114.234 75.5704 114.314 75.5758 114.389 75.5758C114.474 75.5864 114.554 75.5918 114.629 75.5918C114.821 75.5918 114.97 75.5651 115.077 75.5118C115.194 75.4584 115.306 75.3411 115.413 75.1598C115.519 74.9784 115.637 74.7171 115.765 74.3758C115.903 74.0344 116.095 73.5758 116.341 72.9998L112.709 64.6638H113.829L116.917 71.9918L119.781 64.6638H120.821L116.501 75.4158C116.383 75.7251 116.186 75.9918 115.909 76.2158C115.642 76.4504 115.274 76.5678 114.805 76.5678C114.698 76.5678 114.597 76.5624 114.501 76.5518C114.405 76.5518 114.287 76.5411 114.149 76.5198V75.5598Z" fill="#0547A0"/>
<path d="M47.38 56.9998C47.88 56.9998 48.1 56.7798 48.1 56.2798V53.9398C48.1 53.4398 47.88 53.2198 47.38 53.2198H41.86V51.4998H45.76C46.26 51.4998 46.48 51.2798 46.48 50.7798V48.6398C46.48 48.1398 46.26 47.9198 45.76 47.9198H41.86V46.3798H47.38C47.88 46.3798 48.1 46.1598 48.1 45.6598V43.3198C48.1 42.8198 47.88 42.5998 47.38 42.5998H38.1C37.6 42.5998 37.38 42.8198 37.38 43.3198V56.2798C37.38 56.7798 37.6 56.9998 38.1 56.9998H47.38ZM55.6859 46.7998C55.7859 46.5598 55.9059 46.4598 56.0659 46.4598H56.5659C56.7259 46.4598 56.8459 46.5598 56.9459 46.7998L57.8859 49.8398H54.7459L55.6859 46.7998ZM54.5459 56.2798V53.4798H58.0859V56.2798C58.0859 56.7798 58.3259 56.9998 58.8659 56.9998H61.8859C62.3859 56.9998 62.6059 56.7798 62.6059 56.2798V50.9998C62.6059 50.1998 62.3659 49.1998 61.8259 47.7998L60.0859 43.2598C59.9259 42.7998 59.6059 42.5998 59.0859 42.5998H53.7059C53.1659 42.5998 52.8459 42.7998 52.6859 43.2598L50.9459 47.7998C50.4059 49.1998 50.1659 50.1998 50.1659 50.9998V56.2798C50.1659 56.7798 50.3859 56.9998 50.8859 56.9998H53.8259C54.3259 56.9998 54.5459 56.7798 54.5459 56.2798ZM71.7553 56.9998C74.3353 56.9998 75.8953 55.7598 75.8953 53.4798V51.3798C75.8953 49.1398 74.6553 48.3398 72.7753 48.0598L69.7953 47.6598C69.4553 47.6198 69.2553 47.3798 69.2553 47.0198C69.2553 46.6598 69.4553 46.4198 69.7953 46.4198H74.4553C74.9553 46.4198 75.1753 46.1998 75.1753 45.6998V43.3198C75.1753 42.8198 74.9553 42.5998 74.4553 42.5998H68.8553C66.2553 42.5998 64.7153 43.8398 64.7153 46.1198V48.2198C64.7153 50.4598 65.9353 51.2598 67.8153 51.5398L70.8153 51.9598C71.1553 51.9998 71.3353 52.1798 71.3353 52.6398C71.3353 52.9598 71.1553 53.2198 70.8153 53.2198H65.4353C64.9353 53.2198 64.7153 53.4398 64.7153 53.9398V56.2798C64.7153 56.7798 64.9353 56.9998 65.4353 56.9998H71.7553ZM85.1878 56.9998C85.6878 56.9998 85.9078 56.7798 85.9078 56.2798V53.7398L88.9478 49.6198C89.5478 48.7998 89.7078 48.3998 89.7078 47.1598V43.3198C89.7078 42.8198 89.4878 42.5998 88.9878 42.5998H86.0078C85.5078 42.5998 85.2878 42.8198 85.2878 43.3198V46.5998C85.2878 46.8798 85.2878 47.1598 85.1078 47.4398L84.1878 48.8798C84.0478 49.1198 83.9278 49.2198 83.7078 49.2198H83.5078C83.2878 49.2198 83.1678 49.1198 83.0278 48.8798L82.1078 47.4398C81.9278 47.1598 81.9278 46.8798 81.9278 46.5998V43.3198C81.9278 42.8198 81.7078 42.5998 81.2078 42.5998H78.1278C77.6278 42.5998 77.4078 42.8198 77.4078 43.3198V47.1598C77.4078 48.3998 77.5478 48.7998 78.1678 49.6198L81.2278 53.7198V56.2798C81.2278 56.7798 81.4278 56.9998 81.9478 56.9998H85.1878Z" fill="#0F2459"/>
</svg>
