<svg width="119" height="71" viewBox="0 0 119 71" fill="none" xmlns="http://www.w3.org/2000/svg">
<path d="M10.0746 59.5827C10.5672 59.4507 11.5504 59.0631 12.3053 58.5191C13.1105 57.9307 13.6993 57.4623 14.3196 55.8364C16.2075 50.8271 19.0574 47.2061 21.059 42.0421L21.1149 41.9029C21.192 41.7269 21.1723 41.4216 20.9306 41.3311L20.7914 41.2752C20.689 41.2405 20.6098 41.2928 20.4981 41.5712L20.4422 41.7104C19.3459 44.4578 17.7466 46.7187 16.2575 49.0434C16.9812 46.6443 17.5741 44.6841 17.8058 42.8827C17.9283 41.9492 17.8543 41.441 17.1117 40.9878C16.7442 40.7757 16.4715 40.5692 16.2723 40.4052C16.6335 40.2463 16.9869 40.0584 17.3481 39.8995C17.6513 39.7562 17.7941 39.5937 17.6932 39.217C17.5922 38.8402 17.114 38.0988 16.8102 37.7764C16.5509 37.5042 16.3093 37.4137 15.1212 37.732C10.4847 38.9744 7.88938 42.1545 6.8412 44.7336C6.01653 46.756 6.411 48.5759 7.3358 49.4773C8.4676 50.5716 9.3142 50.7175 10.1546 50.4923C10.9949 50.2671 11.74 49.5705 12.4152 48.6132C11.3123 52.263 10.1815 56.852 9.84167 58.7134C9.71495 59.3996 9.78483 59.6604 10.0746 59.5827ZM9.79835 48.3515C9.56653 48.4137 9.35592 48.439 9.16652 48.4277C9.65844 46.0907 11.3943 43.2962 15.1406 41.0501C14.2114 42.9141 12.899 47.5207 9.79835 48.3515ZM28.5641 44.8762C29.1132 45.0707 29.7047 45.1917 30.2553 45.0442C32.5735 44.423 34.4391 40.2583 35.003 38.3058L35.0511 38.1376C35.1204 37.9327 35.1028 37.7511 34.8456 37.6026L34.7354 37.5389C34.6252 37.4753 34.575 37.5198 34.442 37.8349L34.3862 37.9741C33.0664 41.2783 31.9084 42.5204 30.8672 42.9236C30.6197 41.1885 31.7367 37.9387 31.9922 36.69C32.2555 35.4703 31.8705 35.0765 30.5778 35.2365C29.975 35.3049 28.9954 35.4742 28.6477 35.5674C28.4159 35.6295 28.302 35.7842 28.2214 36.1785C27.0125 41.7513 25.216 43.9719 24.0611 44.5299C24.3316 42.8734 25.2515 41.3225 26.1578 38.098C26.5081 36.855 26.4371 35.6628 25.235 35.5811C24.5721 35.5413 23.4321 35.6915 23.0264 35.8002C22.6497 35.9011 22.5224 36.1216 22.4205 36.5526C22.3264 37.0127 21.6714 38.7411 20.4768 41.7011C19.7504 43.5108 19.5317 44.7807 19.7724 45.679C19.9665 46.4035 20.3826 46.9131 21.415 47.2887C22.2347 47.566 22.8474 47.6503 23.4269 47.495C24.673 47.1611 25.9463 45.4223 27.039 42.8934C27.0691 43.817 27.466 44.4871 28.5641 44.8762ZM38.3288 43.1294C39.047 42.5642 39.8495 41.3864 40.6727 39.7061C40.8545 41.4277 41.6344 42.3679 42.9384 42.0185C44.8799 41.4982 46.4176 39.4712 46.8781 38.2918C47.0111 37.9767 46.9934 37.795 46.9624 37.6791C46.9313 37.5632 46.8402 37.3392 46.788 37.26C46.7435 37.2098 46.6565 37.2331 46.6141 37.3066C46.1127 38.2174 45.3832 38.9719 44.5915 39.4946C44.5235 37.6183 44.9906 35.5364 45.777 33.8349C45.9178 33.5488 45.8401 33.259 45.7144 33.1374C45.2057 32.7457 43.9952 32.1693 43.3303 32.0059C42.9939 31.9097 42.6752 31.9951 42.4589 32.1151C41.8244 31.6019 40.9157 31.2242 40.1736 31.2367C39.4973 31.2626 38.9912 31.4603 38.4081 31.834C36.5794 33.0072 34.9816 34.9262 34.0198 37.0163C32.8537 39.5029 33.0722 41.2457 34.0337 42.1683C34.5368 42.6547 34.9854 42.9382 35.6504 43.1017C37.0445 43.7841 37.6898 43.6422 38.3288 43.1294ZM37.4474 41.3468C36.7994 39.16 38.8275 35.138 41.7935 33.2252C41.4738 34.1184 41.137 35.2956 40.8794 36.4206C39.9776 38.6189 38.7545 40.3132 37.4474 41.3468ZM51.539 40.9252C53.2777 40.4593 55.1321 38.2232 56.7601 32.476L56.8082 32.3078C56.8698 32.0739 56.8599 31.9213 56.6027 31.7728L56.4925 31.7091C56.3823 31.6455 56.3321 31.69 56.1991 32.0051L56.1433 32.1443C54.3765 36.5622 52.877 38.2684 51.8897 38.4087C51.6453 37.7288 51.773 36.2348 52.8688 33.0217C56.9051 21.1941 57.307 19.5645 56.9887 18.3764C56.7402 17.4491 55.7834 17.2396 54.7396 17.0534C54.4478 17.0074 54.3184 17.1042 54.2279 17.3458C52.7524 21.344 50.9825 26.4459 48.4641 34.202C47.8692 36.0385 47.6898 37.919 47.9849 39.0202C48.2411 39.9765 48.7498 40.3681 49.3879 40.663C50.0917 40.9714 50.8146 41.1193 51.539 40.9252ZM59.9259 23.5836C60.1096 23.6897 60.7202 23.6503 61.01 23.5727C61.6186 23.4096 62.0377 23.2352 62.4449 22.7844C62.6591 22.5407 63.0487 21.9083 63.5289 21.0342C63.7679 20.5354 63.7115 20.2089 63.4154 19.9155C63.0304 19.5217 62.2976 19.2211 61.4955 19.1255C61.3351 19.1063 61.2849 19.1508 61.2368 19.319C60.9404 20.2991 60.3434 22.012 59.8519 23.0755C59.7324 23.3249 59.779 23.4988 59.9259 23.5836ZM59.0951 38.2173C60.6599 37.798 61.7779 35.4796 62.2363 34.1766C62.3693 33.8614 62.3517 33.6798 62.3206 33.5639C62.2895 33.448 62.1985 33.2239 62.1462 33.1448C62.1017 33.0946 62.0147 33.1179 61.9723 33.1914C61.2242 34.572 60.2612 35.7307 59.2067 36.1997C59.0539 34.4703 60.472 30.9534 61.3737 28.7551C62.0018 27.1581 61.653 26.3199 60.8276 26.1373C60.3965 26.0354 59.4806 26.0944 58.6205 26.0143C58.2128 25.9993 58.1491 26.1096 57.9722 26.8402C57.7762 27.7313 57.16 29.6046 56.1331 32.1471C55.029 34.8655 54.9438 36.2859 55.8184 37.2318C56.0932 37.5619 56.5708 37.8377 57.1644 38.0824C57.7502 38.2981 58.4576 38.3881 59.0951 38.2173ZM67.6005 35.7209C69.4261 35.2317 70.8805 33.0095 71.3756 31.7277C71.5086 31.4126 71.491 31.2309 71.4599 31.115C71.4289 30.9991 71.3378 30.7751 71.2855 30.6959C71.241 30.6457 71.1541 30.669 71.1116 30.7425C70.2822 32.0518 69.0621 33.062 68.0769 33.326C67.903 33.3725 67.7214 33.3902 67.5687 33.4C67.9313 31.1598 69.31 27.0324 70.3385 24.1479C71.3563 23.6577 72.2794 23.1619 72.9283 22.8017C73.3609 22.5616 73.5037 22.3991 73.5886 22.2521C73.6791 22.0104 73.6439 21.6472 73.6051 21.5023C73.5662 21.3574 73.4715 21.3517 73.0948 21.4526C72.61 21.6136 71.8933 21.8367 71.0183 22.1644C71.6479 20.2253 71.9846 19.0481 71.7983 18.3526C71.6352 17.744 71.0919 17.4548 70.3032 17.2934C69.5146 17.1321 68.9464 17.098 68.7146 17.1601C68.5117 17.2144 68.4636 17.3826 68.2598 18.2447C67.9406 19.6036 67.176 21.7341 66.3824 23.8724C65.5653 24.1845 64.7772 24.4889 64.0761 24.7699C63.7149 24.9288 63.5855 25.0256 63.6399 25.2284C63.6942 25.4313 63.9365 25.9875 64.1145 26.1883C64.3081 26.447 64.7236 26.491 65.4905 26.2234C64.926 27.7101 64.4175 29.0576 64.1133 30.0088C63.2969 32.5258 63.5346 34.1083 64.169 34.6215C65.2465 35.513 66.4414 36.0314 67.6005 35.7209ZM72.4246 43.5905C75.699 42.7131 78.713 38.8928 80.9319 32.8009C82.3264 32.2099 83.7867 31.6322 85.3494 31.0893C85.7473 30.9516 86.064 30.7425 86.168 30.4351C86.272 30.1277 86.3858 29.973 86.4608 29.6734C86.4877 29.5419 86.3485 29.4861 86.1167 29.5482C84.9286 29.8665 83.2924 30.3671 81.5424 31.0223C82.6148 27.7223 83.5501 24.4901 84.0172 22.4083C84.2557 21.4437 83.7527 20.9573 82.682 20.9026C82.0848 20.8762 81.6248 20.7821 81.335 20.8597C81.0453 20.9374 80.9469 21.1501 80.5077 22.2927C79.1341 25.8597 77.9229 27.8304 76.8285 28.9622C76.9971 27.7368 77.3489 26.1517 77.5309 24.8606C77.851 22.6939 77.3071 21.939 75.9213 21.7513C75.3743 21.6804 74.9164 21.71 74.5686 21.8031C74.3368 21.8653 74.223 22.02 74.2504 22.3543C74.2862 23.1833 74.0468 24.9556 73.2537 27.5596C72.2682 30.8363 72.2983 31.76 73.0854 32.2634C73.946 32.8093 74.6167 32.8781 75.1673 32.7305C75.515 32.6374 76.0769 32.3004 76.7486 31.5614C77.0554 31.1997 77.86 30.1455 78.7276 28.5154C78.2946 30.0291 77.8518 31.3901 77.4359 32.6196C73.9477 34.2065 70.6552 36.1757 69.1506 38.4424C67.9161 40.3261 68.353 42.0725 69.3569 42.9216C70.0882 43.5643 71.2075 43.9166 72.4246 43.5905ZM71.6671 38.793C72.6202 37.4817 74.3153 36.1578 76.5206 34.8836C74.7419 39.0251 72.8197 41.1241 70.7545 41.6465C70.4502 40.8584 70.9127 39.8027 71.6671 38.793Z" fill="#C6232D"/>
<path d="M7.182 26H6.23V21.926C6.23 21.0953 6.08533 20.4746 5.796 20.064C5.516 19.6533 5.10067 19.448 4.55 19.448C4.27933 19.448 4.00867 19.504 3.738 19.616C3.47667 19.7186 3.22933 19.8633 2.996 20.05C2.76267 20.2366 2.55733 20.456 2.38 20.708C2.212 20.96 2.086 21.2353 2.002 21.534V26H1.05V15.78H2.002V20.358C2.29133 19.8073 2.69267 19.3733 3.206 19.056C3.71933 18.7386 4.27467 18.58 4.872 18.58C5.292 18.58 5.64667 18.6593 5.936 18.818C6.22533 18.9673 6.46333 19.182 6.65 19.462C6.83667 19.7326 6.972 20.064 7.056 20.456C7.14 20.8386 7.182 21.2633 7.182 21.73V26ZM9.21211 26V18.706H10.1641V26H9.21211ZM9.21211 17.18V15.78H10.1641V17.18H9.21211ZM15.1869 26.098C14.6829 26.098 14.2209 25.9953 13.8009 25.79C13.3903 25.5753 13.0309 25.2953 12.7229 24.95C12.4243 24.6046 12.1909 24.208 12.0229 23.76C11.8549 23.312 11.7709 22.85 11.7709 22.374C11.7709 21.87 11.8503 21.3893 12.0089 20.932C12.1769 20.4653 12.4103 20.0593 12.7089 19.714C13.0076 19.3686 13.3623 19.0933 13.7729 18.888C14.1929 18.6826 14.6549 18.58 15.1589 18.58C15.7843 18.58 16.3256 18.7386 16.7829 19.056C17.2403 19.364 17.6323 19.756 17.9589 20.232V18.706H18.8129V26.028C18.8129 26.532 18.7149 26.9753 18.5189 27.358C18.3323 27.75 18.0756 28.0766 17.7489 28.338C17.4316 28.5993 17.0536 28.7953 16.6149 28.926C16.1856 29.0566 15.7283 29.122 15.2429 29.122C14.4029 29.122 13.7263 28.9726 13.2129 28.674C12.6996 28.3753 12.2843 27.974 11.9669 27.47L12.5549 27.008C12.8443 27.4746 13.2269 27.8153 13.7029 28.03C14.1789 28.254 14.6923 28.366 15.2429 28.366C15.5976 28.366 15.9336 28.3146 16.2509 28.212C16.5683 28.1186 16.8436 27.974 17.0769 27.778C17.3196 27.5913 17.5109 27.3486 17.6509 27.05C17.7909 26.7606 17.8609 26.42 17.8609 26.028V24.586C17.5809 25.0526 17.1983 25.4213 16.7129 25.692C16.2276 25.9626 15.7189 26.098 15.1869 26.098ZM15.4529 25.3C15.7329 25.3 16.0083 25.2486 16.2789 25.146C16.5496 25.0433 16.7923 24.908 17.0069 24.74C17.2309 24.5626 17.4176 24.3666 17.5669 24.152C17.7163 23.9373 17.8143 23.718 17.8609 23.494V21.24C17.7583 20.9786 17.6183 20.736 17.4409 20.512C17.2636 20.288 17.0629 20.0966 16.8389 19.938C16.6149 19.7793 16.3723 19.6533 16.1109 19.56C15.8589 19.4666 15.6023 19.42 15.3409 19.42C14.9303 19.42 14.5616 19.5086 14.2349 19.686C13.9176 19.854 13.6469 20.078 13.4229 20.358C13.1989 20.638 13.0263 20.9553 12.9049 21.31C12.7929 21.6646 12.7369 22.024 12.7369 22.388C12.7369 22.78 12.8069 23.1533 12.9469 23.508C13.0869 23.8626 13.2783 24.1753 13.5209 24.446C13.7729 24.7073 14.0623 24.9173 14.3889 25.076C14.7156 25.2253 15.0703 25.3 15.4529 25.3ZM27.0472 26H26.0952V21.926C26.0952 21.0953 25.9506 20.4746 25.6612 20.064C25.3812 19.6533 24.9659 19.448 24.4152 19.448C24.1446 19.448 23.8739 19.504 23.6032 19.616C23.3419 19.7186 23.0946 19.8633 22.8612 20.05C22.6279 20.2366 22.4226 20.456 22.2452 20.708C22.0772 20.96 21.9512 21.2353 21.8672 21.534V26H20.9152V15.78H21.8672V20.358C22.1566 19.8073 22.5579 19.3733 23.0712 19.056C23.5846 18.7386 24.1399 18.58 24.7372 18.58C25.1572 18.58 25.5119 18.6593 25.8012 18.818C26.0906 18.9673 26.3286 19.182 26.5152 19.462C26.7019 19.7326 26.8372 20.064 26.9212 20.456C27.0052 20.8386 27.0472 21.2633 27.0472 21.73V26Z" fill="#EF0E11"/>
<path d="M24.81 65C25.185 65 25.35 64.835 25.35 64.46V59.18L26.235 60.815C26.415 61.16 26.64 61.295 27.03 61.295H27.63C28.02 61.295 28.245 61.16 28.425 60.815L29.31 59.18V64.46C29.31 64.835 29.46 65 29.85 65H32.16C32.535 65 32.7 64.835 32.7 64.46V54.74C32.7 54.365 32.535 54.2 32.16 54.2H29.73C29.415 54.2 29.22 54.32 29.04 54.65L27.705 57.095C27.6 57.275 27.555 57.35 27.435 57.35H27.3C27.18 57.35 27.135 57.275 27.03 57.095L25.68 54.65C25.5 54.32 25.305 54.2 24.99 54.2H22.575C22.2 54.2 22.035 54.365 22.035 54.74V64.46C22.035 64.835 22.2 65 22.575 65H24.81ZM38.6795 57.35C38.7545 57.17 38.8445 57.095 38.9645 57.095H39.3395C39.4595 57.095 39.5495 57.17 39.6245 57.35L40.3295 59.63H37.9745L38.6795 57.35ZM37.8245 64.46V62.36H40.4795V64.46C40.4795 64.835 40.6595 65 41.0645 65H43.3295C43.7045 65 43.8695 64.835 43.8695 64.46V60.5C43.8695 59.9 43.6895 59.15 43.2845 58.1L41.9795 54.695C41.8595 54.35 41.6195 54.2 41.2295 54.2H37.1945C36.7895 54.2 36.5495 54.35 36.4295 54.695L35.1245 58.1C34.7195 59.15 34.5395 59.9 34.5395 60.5V64.46C34.5395 64.835 34.7045 65 35.0795 65H37.2845C37.6595 65 37.8245 64.835 37.8245 64.46ZM50.2209 65C50.5959 65 50.7609 64.835 50.7609 64.46V57.095H52.9659C53.3409 57.095 53.5059 56.93 53.5059 56.555V54.74C53.5059 54.365 53.3409 54.2 52.9659 54.2H45.0459C44.6709 54.2 44.5059 54.365 44.5059 54.74V56.555C44.5059 56.93 44.6709 57.095 45.0459 57.095H47.2509V64.46C47.2509 64.835 47.4159 65 47.7909 65H50.2209ZM62.4647 65C62.8397 65 63.0047 64.835 63.0047 64.46V62.705C63.0047 62.33 62.8397 62.165 62.4647 62.165H58.3247V60.875H61.2497C61.6247 60.875 61.7897 60.71 61.7897 60.335V58.73C61.7897 58.355 61.6247 58.19 61.2497 58.19H58.3247V57.035H62.4647C62.8397 57.035 63.0047 56.87 63.0047 56.495V54.74C63.0047 54.365 62.8397 54.2 62.4647 54.2H55.5047C55.1297 54.2 54.9647 54.365 54.9647 54.74V64.46C54.9647 64.835 55.1297 65 55.5047 65H62.4647ZM68.1691 56.9H69.2941C69.8191 56.9 69.9541 57.2 69.9541 57.605V58.115C69.9541 58.52 69.8191 58.82 69.2941 58.82H68.1691V56.9ZM67.6291 65C68.0041 65 68.1691 64.835 68.1691 64.46V61.52H70.2691C70.6891 61.52 70.8391 61.715 70.8391 62.165V64.46C70.8391 64.835 71.0041 65 71.3791 65H73.7041C74.0791 65 74.2441 64.835 74.2441 64.46V61.28C74.2441 60.02 73.5241 59.225 72.4291 59.105C73.0591 58.835 73.2691 58.235 73.2691 57.395V56.705C73.2691 55.22 72.5641 54.2 70.3141 54.2H65.3191C64.9441 54.2 64.7791 54.365 64.7791 54.74V64.46C64.7791 64.835 64.9441 65 65.3191 65H67.6291ZM76.2266 65H82.6166C82.9916 65 83.1566 64.835 83.1566 64.46V62.675C83.1566 62.3 82.9916 62.135 82.6166 62.135H81.1616V57.095H82.6166C82.9916 57.095 83.1566 56.93 83.1566 56.555V54.74C83.1566 54.365 82.9916 54.2 82.6166 54.2H76.2266C75.8516 54.2 75.6866 54.365 75.6866 54.74V56.555C75.6866 56.93 75.8516 57.095 76.2266 57.095H77.7116V62.135H76.2266C75.8516 62.135 75.6866 62.3 75.6866 62.675V64.46C75.6866 64.835 75.8516 65 76.2266 65ZM88.9236 57.35C88.9986 57.17 89.0886 57.095 89.2086 57.095H89.5836C89.7036 57.095 89.7936 57.17 89.8686 57.35L90.5736 59.63H88.2186L88.9236 57.35ZM88.0686 64.46V62.36H90.7236V64.46C90.7236 64.835 90.9036 65 91.3086 65H93.5736C93.9486 65 94.1136 64.835 94.1136 64.46V60.5C94.1136 59.9 93.9336 59.15 93.5286 58.1L92.2236 54.695C92.1036 54.35 91.8636 54.2 91.4736 54.2H87.4386C87.0336 54.2 86.7936 54.35 86.6736 54.695L85.3686 58.1C84.9636 59.15 84.7836 59.9 84.7836 60.5V64.46C84.7836 64.835 84.9486 65 85.3236 65H87.5286C87.9036 65 88.0686 64.835 88.0686 64.46ZM104.141 65C104.516 65 104.681 64.835 104.681 64.46V59.735C104.681 59.36 104.516 59.195 104.141 59.195H101.966C101.591 59.195 101.426 59.36 101.426 59.735V62.165H99.3707V54.74C99.3707 54.365 99.2057 54.2 98.8307 54.2H96.5057C96.1307 54.2 95.9657 54.365 95.9657 54.74V64.46C95.9657 64.835 96.1307 65 96.5057 65H104.141ZM111.405 65C113.34 65 114.51 64.07 114.51 62.36V60.785C114.51 59.105 113.58 58.505 112.17 58.295L109.935 57.995C109.68 57.965 109.53 57.785 109.53 57.515C109.53 57.245 109.68 57.065 109.935 57.065H113.43C113.805 57.065 113.97 56.9 113.97 56.525V54.74C113.97 54.365 113.805 54.2 113.43 54.2H109.23C107.28 54.2 106.125 55.13 106.125 56.84V58.415C106.125 60.095 107.04 60.695 108.45 60.905L110.7 61.22C110.955 61.25 111.09 61.385 111.09 61.73C111.09 61.97 110.955 62.165 110.7 62.165H106.665C106.29 62.165 106.125 62.33 106.125 62.705V64.46C106.125 64.835 106.29 65 106.665 65H111.405Z" fill="#85191E"/>
</svg>
