<svg width="99" height="64" viewBox="0 0 99 64" fill="none" xmlns="http://www.w3.org/2000/svg">
<path d="M4.16 37.6C8 37.6 11.84 36.36 14.52 34.28C17.28 32.12 18.52 28.72 17.52 25.36C17.12 24.12 16.48 23 15.32 22.24C19.28 21.6 22.44 19.92 23.32 17.56C24.56 14.32 22.96 11 17.28 11C15.48 11 13.8 11.52 12.44 12.24C11.6 12.64 11.12 12.96 10.44 13.76C10 14.32 9.32 15.48 8.96 16.28C8.76 16.68 8.84 16.92 9.32 16.68C11.68 15.68 13.44 15.36 15 15.36C17.68 15.36 18.28 16.48 17.96 17.6C17.52 19.12 16.04 20.04 11.44 20.88C9.72 21.2 9 21.64 8.48 22.52C7.96 23.4 7.6 24.2 7.6 24.6C7.6 24.84 7.64 24.92 8 24.92C11.76 25.04 14.36 25.76 15.36 26.72C14.48 29.28 9.48 32.88 0.96 32.92C0.6 32.92 0.4 33.56 0.8 34.96C1.44 37 2.44 37.6 4.16 37.6ZM27.0063 37.2C33.2463 37.2 37.7663 31.04 37.7663 27.04C37.7663 25.48 37.0863 24.12 35.7663 22.68C34.6863 21.52 33.6463 20.8 32.0463 20.44C34.7663 17.6 38.1663 15.16 43.0863 12.92C44.0063 12.48 43.9663 12.08 43.2463 11.84C42.0063 11.44 41.6463 11 40.6863 11C40.0463 11 39.0063 11.24 38.0063 11.64C31.2463 14.28 25.8063 18.4 22.1663 24C20.0063 27.36 19.6863 31.72 22.0463 34.68C22.6063 35.4 23.3663 36.08 24.2063 36.36C24.9663 36.92 25.9263 37.2 27.0063 37.2ZM27.7263 25.72C28.1263 25.12 28.5663 24.56 29.0063 23.96C31.1663 23.16 32.8863 23.2 34.0063 23.84C34.2863 24.96 33.9663 26.76 32.5663 28.92C30.7263 31.8 27.8063 33.52 25.1663 33.72C24.6463 32.16 25.2463 29.24 27.7263 25.72ZM40.185 37.6C46.385 37.6 54.425 32.76 54.545 26.48C54.545 25.64 54.425 24.8 54.065 24.04C53.225 22.16 51.785 20.36 47.425 20.16C48.185 19 48.905 17.92 49.625 16.84C52.465 16.84 55.625 16.68 57.705 16.48C60.025 16.28 61.225 15.28 62.145 13.72C62.545 13.12 62.945 12.28 62.945 11.92C62.945 11.76 62.945 11.64 62.545 11.64C60.505 11.64 56.425 11.84 52.705 12.12C53.305 11.2 52.785 10.96 52.265 10.24C52.065 9.96 51.865 9.8 51.625 9.8C51.345 9.8 51.225 10 50.665 10.84C50.345 11.32 49.985 11.8 49.625 12.32C48.665 12.4 47.825 12.48 47.145 12.56C46.705 12.56 46.705 12.72 46.705 12.92C46.705 13.24 46.905 14.24 47.105 14.84C47.185 15.04 47.265 15.24 47.385 15.44C45.625 17.8 43.785 20.32 42.305 22.44C41.785 23.12 41.785 23.84 42.025 24.32C42.185 24.68 42.505 25.2 42.785 25.52C43.025 25.76 43.185 25.76 44.025 25.48C47.345 24.32 50.305 24.24 51.905 24.68C51.505 28.52 44.785 32.08 36.545 32.96C36.105 33 36.025 34.32 36.705 35.56C37.585 37.08 38.705 37.6 40.185 37.6Z" fill="#0547A0"/>
<path d="M20.18 60C20.68 60 20.9 59.78 20.9 59.28V49.46H23.84C24.34 49.46 24.56 49.24 24.56 48.74V46.32C24.56 45.82 24.34 45.6 23.84 45.6H13.28C12.78 45.6 12.56 45.82 12.56 46.32V48.74C12.56 49.24 12.78 49.46 13.28 49.46H16.22V59.28C16.22 59.78 16.44 60 16.94 60H20.18ZM31.025 49.2H32.525C33.225 49.2 33.405 49.6 33.405 50.14V50.82C33.405 51.36 33.225 51.76 32.525 51.76H31.025V49.2ZM30.305 60C30.805 60 31.025 59.78 31.025 59.28V55.36H33.825C34.385 55.36 34.585 55.62 34.585 56.22V59.28C34.585 59.78 34.805 60 35.305 60H38.405C38.905 60 39.125 59.78 39.125 59.28V55.04C39.125 53.36 38.165 52.3 36.705 52.14C37.545 51.78 37.825 50.98 37.825 49.86V48.94C37.825 46.96 36.885 45.6 33.885 45.6H27.225C26.725 45.6 26.505 45.82 26.505 46.32V59.28C26.505 59.78 26.725 60 27.225 60H30.305ZM41.7683 60H50.2883C50.7883 60 51.0083 59.78 51.0083 59.28V56.9C51.0083 56.4 50.7883 56.18 50.2883 56.18H48.3483V49.46H50.2883C50.7883 49.46 51.0083 49.24 51.0083 48.74V46.32C51.0083 45.82 50.7883 45.6 50.2883 45.6H41.7683C41.2683 45.6 41.0483 45.82 41.0483 46.32V48.74C41.0483 49.24 41.2683 49.46 41.7683 49.46H43.7483V56.18H41.7683C41.2683 56.18 41.0483 56.4 41.0483 56.9V59.28C41.0483 59.78 41.2683 60 41.7683 60ZM58.6977 49.8C58.7977 49.56 58.9177 49.46 59.0777 49.46H59.5777C59.7377 49.46 59.8577 49.56 59.9577 49.8L60.8977 52.84H57.7577L58.6977 49.8ZM57.5577 59.28V56.48H61.0977V59.28C61.0977 59.78 61.3377 60 61.8777 60H64.8977C65.3977 60 65.6177 59.78 65.6177 59.28V54C65.6177 53.2 65.3777 52.2 64.8377 50.8L63.0977 46.26C62.9377 45.8 62.6177 45.6 62.0977 45.6H56.7177C56.1777 45.6 55.8577 45.8 55.6977 46.26L53.9577 50.8C53.4177 52.2 53.1777 53.2 53.1777 54V59.28C53.1777 59.78 53.3977 60 53.8977 60H56.8377C57.3377 60 57.5577 59.78 57.5577 59.28ZM78.987 60C79.487 60 79.707 59.78 79.707 59.28V52.98C79.707 52.48 79.487 52.26 78.987 52.26H76.087C75.587 52.26 75.367 52.48 75.367 52.98V56.22H72.627V46.32C72.627 45.82 72.407 45.6 71.907 45.6H68.807C68.307 45.6 68.087 45.82 68.087 46.32V59.28C68.087 59.78 68.307 60 68.807 60H78.987Z" fill="#0D6EF0"/>
<path d="M65.78 38.2C65.06 38.2 64.3933 38.0533 63.78 37.76C63.1667 37.4533 62.64 37.0533 62.2 36.56C61.76 36.0667 61.4133 35.5 61.16 34.86C60.92 34.2067 60.8 33.5267 60.8 32.82C60.8 32.0867 60.92 31.3933 61.16 30.74C61.4 30.0733 61.7267 29.4933 62.14 29C62.5667 28.5067 63.0667 28.12 63.64 27.84C64.2267 27.5467 64.8667 27.4 65.56 27.4C66.44 27.4 67.22 27.6333 67.9 28.1C68.58 28.5533 69.1133 29.1067 69.5 29.76V23.4H70.86V36.24C70.86 36.6133 71.02 36.8 71.34 36.8V38C71.14 38.04 70.98 38.06 70.86 38.06C70.54 38.06 70.26 37.96 70.02 37.76C69.78 37.5467 69.66 37.2933 69.66 37V35.98C69.2467 36.66 68.6867 37.2 67.98 37.6C67.2733 38 66.54 38.2 65.78 38.2ZM66.08 37C66.4133 37 66.7667 36.9333 67.14 36.8C67.5267 36.6667 67.8867 36.4867 68.22 36.26C68.5533 36.02 68.8333 35.7467 69.06 35.44C69.3 35.12 69.4467 34.78 69.5 34.42V31.2C69.3667 30.84 69.1733 30.5067 68.92 30.2C68.6667 29.88 68.3733 29.6 68.04 29.36C67.72 29.12 67.3733 28.9333 67 28.8C66.6267 28.6667 66.26 28.6 65.9 28.6C65.34 28.6 64.8333 28.72 64.38 28.96C63.9267 29.2 63.5333 29.52 63.2 29.92C62.88 30.3067 62.6333 30.7533 62.46 31.26C62.2867 31.7667 62.2 32.2867 62.2 32.82C62.2 33.38 62.3 33.9133 62.5 34.42C62.7 34.9267 62.9733 35.3733 63.32 35.76C63.6667 36.1333 64.0733 36.4333 64.54 36.66C65.02 36.8867 65.5333 37 66.08 37ZM76.5614 38.2C76.0681 38.2 75.6081 38.12 75.1814 37.96C74.7681 37.7867 74.4014 37.5533 74.0814 37.26C73.7747 36.9667 73.5347 36.6267 73.3614 36.24C73.1881 35.84 73.1014 35.4133 73.1014 34.96C73.1014 34.5067 73.2081 34.0867 73.4214 33.7C73.6347 33.3133 73.9347 32.98 74.3214 32.7C74.7081 32.42 75.1681 32.2067 75.7014 32.06C76.2347 31.9 76.8214 31.82 77.4614 31.82C77.9947 31.82 78.5347 31.8667 79.0814 31.96C79.6281 32.0533 80.1147 32.1867 80.5414 32.36V31.42C80.5414 30.5 80.2814 29.7733 79.7614 29.24C79.2414 28.6933 78.5214 28.42 77.6014 28.42C77.0681 28.42 76.5214 28.5267 75.9614 28.74C75.4014 28.9533 74.8347 29.26 74.2614 29.66L73.7814 28.76C75.1281 27.8533 76.4347 27.4 77.7014 27.4C79.0081 27.4 80.0347 27.7667 80.7814 28.5C81.5281 29.2333 81.9014 30.2467 81.9014 31.54V36.24C81.9014 36.6133 82.0681 36.8 82.4014 36.8V38C82.1747 38.04 82.0014 38.06 81.8814 38.06C81.5347 38.06 81.2614 37.9733 81.0614 37.8C80.8747 37.6267 80.7747 37.3867 80.7614 37.08L80.7214 36.26C80.2414 36.8867 79.6347 37.3667 78.9014 37.7C78.1814 38.0333 77.4014 38.2 76.5614 38.2ZM76.8814 37.16C77.5881 37.16 78.2347 37.0267 78.8214 36.76C79.4214 36.4933 79.8747 36.14 80.1814 35.7C80.3014 35.58 80.3881 35.4533 80.4414 35.32C80.5081 35.1733 80.5414 35.04 80.5414 34.92V33.22C80.0881 33.0467 79.6147 32.9133 79.1214 32.82C78.6414 32.7267 78.1481 32.68 77.6414 32.68C76.6814 32.68 75.9014 32.88 75.3014 33.28C74.7014 33.68 74.4014 34.2067 74.4014 34.86C74.4014 35.18 74.4614 35.48 74.5814 35.76C74.7147 36.04 74.8881 36.2867 75.1014 36.5C75.3281 36.7 75.5947 36.86 75.9014 36.98C76.2081 37.1 76.5347 37.16 76.8814 37.16ZM85.1859 41.2C85.2926 41.2133 85.3926 41.22 85.4859 41.22C85.5926 41.2333 85.6926 41.24 85.7859 41.24C86.0259 41.24 86.2126 41.2067 86.3459 41.14C86.4926 41.0733 86.6326 40.9267 86.7659 40.7C86.8993 40.4733 87.0459 40.1467 87.2059 39.72C87.3793 39.2933 87.6193 38.72 87.9259 38L83.3859 27.58H84.7859L88.6459 36.74L92.2259 27.58H93.5259L88.1259 41.02C87.9793 41.4067 87.7326 41.74 87.3859 42.02C87.0526 42.3133 86.5926 42.46 86.0059 42.46C85.8726 42.46 85.7459 42.4533 85.6259 42.44C85.5059 42.44 85.3593 42.4267 85.1859 42.4V41.2Z" fill="#0F2459"/>
</svg>
